<mxfile host="app.diagrams.net" modified="2023-01-17T06:58:35.406Z" agent="5.0 (Macintosh; Intel Mac OS X 10_15_7) AppleWebKit/537.36 (KHTML, like Gecko) Chrome/109.0.0.0 Safari/537.36" etag="su67WaIdl9qtUoftvF99" version="20.7.4" type="github">
  <diagram id="R2lEEEUBdFMjLlhIrx00" name="申请书">
    <mxGraphModel dx="954" dy="16" grid="1" gridSize="10" guides="1" tooltips="1" connect="1" arrows="1" fold="1" page="1" pageScale="1" pageWidth="1169" pageHeight="827" background="none" math="0" shadow="0" extFonts="Permanent Marker^https://fonts.googleapis.com/css?family=Permanent+Marker">
      <root>
        <mxCell id="0" />
        <mxCell id="1" parent="0" />
        <mxCell id="GZZZKhW5ikRwwze90NLK-1" value="feedback_feedback" style="shape=table;startSize=30;container=1;collapsible=1;childLayout=tableLayout;fixedRows=1;rowLines=0;fontStyle=1;align=center;resizeLast=1;rounded=1;fillColor=#d5e8d4;strokeColor=#82b366;fontSize=16;" vertex="1" parent="1">
          <mxGeometry x="600" y="1401" width="250" height="150" as="geometry" />
        </mxCell>
        <mxCell id="GZZZKhW5ikRwwze90NLK-2" value="" style="shape=partialRectangle;collapsible=0;dropTarget=0;pointerEvents=0;fillColor=none;points=[[0,0.5],[1,0.5]];portConstraint=eastwest;top=0;left=0;right=0;bottom=1;rounded=1;strokeColor=#788AA3;fontColor=#46495D;fontSize=16;" vertex="1" parent="GZZZKhW5ikRwwze90NLK-1">
          <mxGeometry y="30" width="250" height="30" as="geometry" />
        </mxCell>
        <mxCell id="GZZZKhW5ikRwwze90NLK-3" value="PK" style="shape=partialRectangle;overflow=hidden;connectable=0;fillColor=none;top=0;left=0;bottom=0;right=0;fontStyle=1;rounded=1;strokeColor=#788AA3;fontColor=#46495D;fontSize=16;" vertex="1" parent="GZZZKhW5ikRwwze90NLK-2">
          <mxGeometry width="30" height="30" as="geometry">
            <mxRectangle width="30" height="30" as="alternateBounds" />
          </mxGeometry>
        </mxCell>
        <mxCell id="GZZZKhW5ikRwwze90NLK-4" value="_id int NOT NULL " style="shape=partialRectangle;overflow=hidden;connectable=0;fillColor=none;top=0;left=0;bottom=0;right=0;align=left;spacingLeft=6;fontStyle=5;rounded=1;strokeColor=#788AA3;fontColor=#46495D;fontSize=16;" vertex="1" parent="GZZZKhW5ikRwwze90NLK-2">
          <mxGeometry x="30" width="220" height="30" as="geometry">
            <mxRectangle width="220" height="30" as="alternateBounds" />
          </mxGeometry>
        </mxCell>
        <mxCell id="GZZZKhW5ikRwwze90NLK-5" value="" style="shape=partialRectangle;collapsible=0;dropTarget=0;pointerEvents=0;fillColor=none;points=[[0,0.5],[1,0.5]];portConstraint=eastwest;top=0;left=0;right=0;bottom=0;rounded=1;strokeColor=#788AA3;fontColor=#46495D;fontSize=16;" vertex="1" parent="GZZZKhW5ikRwwze90NLK-1">
          <mxGeometry y="60" width="250" height="30" as="geometry" />
        </mxCell>
        <mxCell id="GZZZKhW5ikRwwze90NLK-6" value="" style="shape=partialRectangle;overflow=hidden;connectable=0;fillColor=none;top=0;left=0;bottom=0;right=0;rounded=1;strokeColor=#788AA3;fontColor=#46495D;fontSize=16;" vertex="1" parent="GZZZKhW5ikRwwze90NLK-5">
          <mxGeometry width="30" height="30" as="geometry">
            <mxRectangle width="30" height="30" as="alternateBounds" />
          </mxGeometry>
        </mxCell>
        <mxCell id="GZZZKhW5ikRwwze90NLK-7" value="key string" style="shape=partialRectangle;overflow=hidden;connectable=0;fillColor=none;top=0;left=0;bottom=0;right=0;align=left;spacingLeft=6;rounded=1;strokeColor=#788AA3;fontColor=#46495D;fontSize=16;" vertex="1" parent="GZZZKhW5ikRwwze90NLK-5">
          <mxGeometry x="30" width="220" height="30" as="geometry">
            <mxRectangle width="220" height="30" as="alternateBounds" />
          </mxGeometry>
        </mxCell>
        <mxCell id="GZZZKhW5ikRwwze90NLK-8" value="" style="shape=partialRectangle;collapsible=0;dropTarget=0;pointerEvents=0;fillColor=none;points=[[0,0.5],[1,0.5]];portConstraint=eastwest;top=0;left=0;right=0;bottom=0;rounded=1;strokeColor=#788AA3;fontColor=#46495D;fontSize=16;" vertex="1" parent="GZZZKhW5ikRwwze90NLK-1">
          <mxGeometry y="90" width="250" height="30" as="geometry" />
        </mxCell>
        <mxCell id="GZZZKhW5ikRwwze90NLK-9" value="" style="shape=partialRectangle;overflow=hidden;connectable=0;fillColor=none;top=0;left=0;bottom=0;right=0;rounded=1;strokeColor=#788AA3;fontColor=#46495D;fontSize=16;" vertex="1" parent="GZZZKhW5ikRwwze90NLK-8">
          <mxGeometry width="30" height="30" as="geometry">
            <mxRectangle width="30" height="30" as="alternateBounds" />
          </mxGeometry>
        </mxCell>
        <mxCell id="GZZZKhW5ikRwwze90NLK-10" value="value string" style="shape=partialRectangle;overflow=hidden;connectable=0;fillColor=none;top=0;left=0;bottom=0;right=0;align=left;spacingLeft=6;rounded=1;strokeColor=#788AA3;fontColor=#46495D;fontSize=16;" vertex="1" parent="GZZZKhW5ikRwwze90NLK-8">
          <mxGeometry x="30" width="220" height="30" as="geometry">
            <mxRectangle width="220" height="30" as="alternateBounds" />
          </mxGeometry>
        </mxCell>
        <mxCell id="GZZZKhW5ikRwwze90NLK-11" value="" style="shape=partialRectangle;collapsible=0;dropTarget=0;pointerEvents=0;fillColor=none;points=[[0,0.5],[1,0.5]];portConstraint=eastwest;top=0;left=0;right=0;bottom=0;rounded=1;strokeColor=#788AA3;fontColor=#46495D;fontSize=16;" vertex="1" parent="GZZZKhW5ikRwwze90NLK-1">
          <mxGeometry y="120" width="250" height="30" as="geometry" />
        </mxCell>
        <mxCell id="GZZZKhW5ikRwwze90NLK-12" value="" style="shape=partialRectangle;overflow=hidden;connectable=0;fillColor=none;top=0;left=0;bottom=0;right=0;rounded=1;strokeColor=#788AA3;fontColor=#46495D;fontSize=16;" vertex="1" parent="GZZZKhW5ikRwwze90NLK-11">
          <mxGeometry width="30" height="30" as="geometry">
            <mxRectangle width="30" height="30" as="alternateBounds" />
          </mxGeometry>
        </mxCell>
        <mxCell id="GZZZKhW5ikRwwze90NLK-13" value="isChecked boolean" style="shape=partialRectangle;overflow=hidden;connectable=0;fillColor=none;top=0;left=0;bottom=0;right=0;align=left;spacingLeft=6;rounded=1;strokeColor=#788AA3;fontColor=#46495D;fontSize=16;" vertex="1" parent="GZZZKhW5ikRwwze90NLK-11">
          <mxGeometry x="30" width="220" height="30" as="geometry">
            <mxRectangle width="220" height="30" as="alternateBounds" />
          </mxGeometry>
        </mxCell>
        <mxCell id="GZZZKhW5ikRwwze90NLK-89" value="feedback" style="shape=table;startSize=30;container=1;collapsible=1;childLayout=tableLayout;fixedRows=1;rowLines=0;fontStyle=1;align=center;resizeLast=1;rounded=1;sketch=0;strokeColor=#82b366;fillColor=#d5e8d4;fontSize=16;" vertex="1" parent="1">
          <mxGeometry x="240" y="1241" width="240" height="330" as="geometry" />
        </mxCell>
        <mxCell id="GZZZKhW5ikRwwze90NLK-90" value="" style="shape=tableRow;horizontal=0;startSize=0;swimlaneHead=0;swimlaneBody=0;fillColor=none;collapsible=0;dropTarget=0;points=[[0,0.5],[1,0.5]];portConstraint=eastwest;top=0;left=0;right=0;bottom=1;rounded=0;sketch=0;fontColor=#46495D;strokeColor=#788AA3;fontSize=16;" vertex="1" parent="GZZZKhW5ikRwwze90NLK-89">
          <mxGeometry y="30" width="240" height="30" as="geometry" />
        </mxCell>
        <mxCell id="GZZZKhW5ikRwwze90NLK-91" value="PK" style="shape=partialRectangle;connectable=0;fillColor=none;top=0;left=0;bottom=0;right=0;fontStyle=1;overflow=hidden;rounded=0;sketch=0;fontColor=#46495D;strokeColor=#788AA3;fontSize=16;" vertex="1" parent="GZZZKhW5ikRwwze90NLK-90">
          <mxGeometry width="30" height="30" as="geometry">
            <mxRectangle width="30" height="30" as="alternateBounds" />
          </mxGeometry>
        </mxCell>
        <mxCell id="GZZZKhW5ikRwwze90NLK-92" value="_id objectId NOT NULL" style="shape=partialRectangle;connectable=0;fillColor=none;top=0;left=0;bottom=0;right=0;align=left;spacingLeft=6;fontStyle=5;overflow=hidden;rounded=0;sketch=0;fontColor=#46495D;strokeColor=#788AA3;fontSize=16;" vertex="1" parent="GZZZKhW5ikRwwze90NLK-90">
          <mxGeometry x="30" width="210" height="30" as="geometry">
            <mxRectangle width="210" height="30" as="alternateBounds" />
          </mxGeometry>
        </mxCell>
        <mxCell id="GZZZKhW5ikRwwze90NLK-93" value="" style="shape=tableRow;horizontal=0;startSize=0;swimlaneHead=0;swimlaneBody=0;fillColor=none;collapsible=0;dropTarget=0;points=[[0,0.5],[1,0.5]];portConstraint=eastwest;top=0;left=0;right=0;bottom=0;rounded=0;sketch=0;fontColor=#46495D;strokeColor=#788AA3;fontSize=16;" vertex="1" parent="GZZZKhW5ikRwwze90NLK-89">
          <mxGeometry y="60" width="240" height="30" as="geometry" />
        </mxCell>
        <mxCell id="GZZZKhW5ikRwwze90NLK-94" value="" style="shape=partialRectangle;connectable=0;fillColor=none;top=0;left=0;bottom=0;right=0;editable=1;overflow=hidden;rounded=0;sketch=0;fontColor=#46495D;strokeColor=#788AA3;fontSize=16;" vertex="1" parent="GZZZKhW5ikRwwze90NLK-93">
          <mxGeometry width="30" height="30" as="geometry">
            <mxRectangle width="30" height="30" as="alternateBounds" />
          </mxGeometry>
        </mxCell>
        <mxCell id="GZZZKhW5ikRwwze90NLK-95" value="application_id string" style="shape=partialRectangle;connectable=0;fillColor=none;top=0;left=0;bottom=0;right=0;align=left;spacingLeft=6;overflow=hidden;rounded=0;sketch=0;fontColor=#46495D;strokeColor=#788AA3;fontSize=16;" vertex="1" parent="GZZZKhW5ikRwwze90NLK-93">
          <mxGeometry x="30" width="210" height="30" as="geometry">
            <mxRectangle width="210" height="30" as="alternateBounds" />
          </mxGeometry>
        </mxCell>
        <mxCell id="GZZZKhW5ikRwwze90NLK-96" value="" style="shape=tableRow;horizontal=0;startSize=0;swimlaneHead=0;swimlaneBody=0;fillColor=none;collapsible=0;dropTarget=0;points=[[0,0.5],[1,0.5]];portConstraint=eastwest;top=0;left=0;right=0;bottom=0;rounded=0;sketch=0;fontColor=#46495D;strokeColor=#788AA3;fontSize=16;" vertex="1" parent="GZZZKhW5ikRwwze90NLK-89">
          <mxGeometry y="90" width="240" height="30" as="geometry" />
        </mxCell>
        <mxCell id="GZZZKhW5ikRwwze90NLK-97" value="" style="shape=partialRectangle;connectable=0;fillColor=none;top=0;left=0;bottom=0;right=0;editable=1;overflow=hidden;rounded=0;sketch=0;fontColor=#46495D;strokeColor=#788AA3;fontSize=16;" vertex="1" parent="GZZZKhW5ikRwwze90NLK-96">
          <mxGeometry width="30" height="30" as="geometry">
            <mxRectangle width="30" height="30" as="alternateBounds" />
          </mxGeometry>
        </mxCell>
        <mxCell id="GZZZKhW5ikRwwze90NLK-98" value="expert_id string" style="shape=partialRectangle;connectable=0;fillColor=none;top=0;left=0;bottom=0;right=0;align=left;spacingLeft=6;overflow=hidden;rounded=0;sketch=0;fontColor=#46495D;strokeColor=#788AA3;fontSize=16;" vertex="1" parent="GZZZKhW5ikRwwze90NLK-96">
          <mxGeometry x="30" width="210" height="30" as="geometry">
            <mxRectangle width="210" height="30" as="alternateBounds" />
          </mxGeometry>
        </mxCell>
        <mxCell id="GZZZKhW5ikRwwze90NLK-99" value="" style="shape=tableRow;horizontal=0;startSize=0;swimlaneHead=0;swimlaneBody=0;fillColor=none;collapsible=0;dropTarget=0;points=[[0,0.5],[1,0.5]];portConstraint=eastwest;top=0;left=0;right=0;bottom=0;rounded=0;sketch=0;fontColor=#46495D;strokeColor=#788AA3;fontSize=16;" vertex="1" parent="GZZZKhW5ikRwwze90NLK-89">
          <mxGeometry y="120" width="240" height="30" as="geometry" />
        </mxCell>
        <mxCell id="GZZZKhW5ikRwwze90NLK-100" value="" style="shape=partialRectangle;connectable=0;fillColor=none;top=0;left=0;bottom=0;right=0;editable=1;overflow=hidden;rounded=0;sketch=0;fontColor=#46495D;strokeColor=#788AA3;fontSize=16;" vertex="1" parent="GZZZKhW5ikRwwze90NLK-99">
          <mxGeometry width="30" height="30" as="geometry">
            <mxRectangle width="30" height="30" as="alternateBounds" />
          </mxGeometry>
        </mxCell>
        <mxCell id="GZZZKhW5ikRwwze90NLK-101" value="op_type string" style="shape=partialRectangle;connectable=0;fillColor=none;top=0;left=0;bottom=0;right=0;align=left;spacingLeft=6;overflow=hidden;rounded=0;sketch=0;fontColor=#46495D;strokeColor=#788AA3;fontSize=16;" vertex="1" parent="GZZZKhW5ikRwwze90NLK-99">
          <mxGeometry x="30" width="210" height="30" as="geometry">
            <mxRectangle width="210" height="30" as="alternateBounds" />
          </mxGeometry>
        </mxCell>
        <mxCell id="GZZZKhW5ikRwwze90NLK-102" value="" style="shape=tableRow;horizontal=0;startSize=0;swimlaneHead=0;swimlaneBody=0;fillColor=none;collapsible=0;dropTarget=0;points=[[0,0.5],[1,0.5]];portConstraint=eastwest;top=0;left=0;right=0;bottom=0;rounded=0;sketch=0;fontColor=#46495D;strokeColor=#788AA3;fontSize=16;" vertex="1" parent="GZZZKhW5ikRwwze90NLK-89">
          <mxGeometry y="150" width="240" height="30" as="geometry" />
        </mxCell>
        <mxCell id="GZZZKhW5ikRwwze90NLK-103" value="" style="shape=partialRectangle;connectable=0;fillColor=none;top=0;left=0;bottom=0;right=0;editable=1;overflow=hidden;rounded=0;sketch=0;fontColor=#46495D;strokeColor=#788AA3;fontSize=16;" vertex="1" parent="GZZZKhW5ikRwwze90NLK-102">
          <mxGeometry width="30" height="30" as="geometry">
            <mxRectangle width="30" height="30" as="alternateBounds" />
          </mxGeometry>
        </mxCell>
        <mxCell id="GZZZKhW5ikRwwze90NLK-104" value="user_id string" style="shape=partialRectangle;connectable=0;fillColor=none;top=0;left=0;bottom=0;right=0;align=left;spacingLeft=6;overflow=hidden;rounded=0;sketch=0;fontColor=#46495D;strokeColor=#788AA3;fontSize=16;" vertex="1" parent="GZZZKhW5ikRwwze90NLK-102">
          <mxGeometry x="30" width="210" height="30" as="geometry">
            <mxRectangle width="210" height="30" as="alternateBounds" />
          </mxGeometry>
        </mxCell>
        <mxCell id="GZZZKhW5ikRwwze90NLK-109" style="shape=tableRow;horizontal=0;startSize=0;swimlaneHead=0;swimlaneBody=0;fillColor=none;collapsible=0;dropTarget=0;points=[[0,0.5],[1,0.5]];portConstraint=eastwest;top=0;left=0;right=0;bottom=0;rounded=0;sketch=0;fontColor=#46495D;strokeColor=#788AA3;fontSize=16;" vertex="1" parent="GZZZKhW5ikRwwze90NLK-89">
          <mxGeometry y="180" width="240" height="30" as="geometry" />
        </mxCell>
        <mxCell id="GZZZKhW5ikRwwze90NLK-110" style="shape=partialRectangle;connectable=0;fillColor=none;top=0;left=0;bottom=0;right=0;editable=1;overflow=hidden;rounded=0;sketch=0;fontColor=#46495D;strokeColor=#788AA3;fontSize=16;" vertex="1" parent="GZZZKhW5ikRwwze90NLK-109">
          <mxGeometry width="30" height="30" as="geometry">
            <mxRectangle width="30" height="30" as="alternateBounds" />
          </mxGeometry>
        </mxCell>
        <mxCell id="GZZZKhW5ikRwwze90NLK-111" value="psn_code string" style="shape=partialRectangle;connectable=0;fillColor=none;top=0;left=0;bottom=0;right=0;align=left;spacingLeft=6;overflow=hidden;rounded=0;sketch=0;fontColor=#46495D;strokeColor=#788AA3;fontSize=16;" vertex="1" parent="GZZZKhW5ikRwwze90NLK-109">
          <mxGeometry x="30" width="210" height="30" as="geometry">
            <mxRectangle width="210" height="30" as="alternateBounds" />
          </mxGeometry>
        </mxCell>
        <mxCell id="GZZZKhW5ikRwwze90NLK-112" style="shape=tableRow;horizontal=0;startSize=0;swimlaneHead=0;swimlaneBody=0;fillColor=none;collapsible=0;dropTarget=0;points=[[0,0.5],[1,0.5]];portConstraint=eastwest;top=0;left=0;right=0;bottom=0;rounded=0;sketch=0;fontColor=#46495D;strokeColor=#788AA3;fontSize=16;" vertex="1" parent="GZZZKhW5ikRwwze90NLK-89">
          <mxGeometry y="210" width="240" height="30" as="geometry" />
        </mxCell>
        <mxCell id="GZZZKhW5ikRwwze90NLK-113" style="shape=partialRectangle;connectable=0;fillColor=none;top=0;left=0;bottom=0;right=0;editable=1;overflow=hidden;rounded=0;sketch=0;fontColor=#46495D;strokeColor=#788AA3;fontSize=16;" vertex="1" parent="GZZZKhW5ikRwwze90NLK-112">
          <mxGeometry width="30" height="30" as="geometry">
            <mxRectangle width="30" height="30" as="alternateBounds" />
          </mxGeometry>
        </mxCell>
        <mxCell id="GZZZKhW5ikRwwze90NLK-114" value="created_at date" style="shape=partialRectangle;connectable=0;fillColor=none;top=0;left=0;bottom=0;right=0;align=left;spacingLeft=6;overflow=hidden;rounded=0;sketch=0;fontColor=#46495D;strokeColor=#788AA3;fontSize=16;" vertex="1" parent="GZZZKhW5ikRwwze90NLK-112">
          <mxGeometry x="30" width="210" height="30" as="geometry">
            <mxRectangle width="210" height="30" as="alternateBounds" />
          </mxGeometry>
        </mxCell>
        <mxCell id="GZZZKhW5ikRwwze90NLK-127" style="shape=tableRow;horizontal=0;startSize=0;swimlaneHead=0;swimlaneBody=0;fillColor=none;collapsible=0;dropTarget=0;points=[[0,0.5],[1,0.5]];portConstraint=eastwest;top=0;left=0;right=0;bottom=0;rounded=0;sketch=0;fontColor=#46495D;strokeColor=#788AA3;fontSize=16;" vertex="1" parent="GZZZKhW5ikRwwze90NLK-89">
          <mxGeometry y="240" width="240" height="30" as="geometry" />
        </mxCell>
        <mxCell id="GZZZKhW5ikRwwze90NLK-128" style="shape=partialRectangle;connectable=0;fillColor=none;top=0;left=0;bottom=0;right=0;editable=1;overflow=hidden;rounded=0;sketch=0;fontColor=#46495D;strokeColor=#788AA3;fontSize=16;" vertex="1" parent="GZZZKhW5ikRwwze90NLK-127">
          <mxGeometry width="30" height="30" as="geometry">
            <mxRectangle width="30" height="30" as="alternateBounds" />
          </mxGeometry>
        </mxCell>
        <mxCell id="GZZZKhW5ikRwwze90NLK-129" value="updated_at date" style="shape=partialRectangle;connectable=0;fillColor=none;top=0;left=0;bottom=0;right=0;align=left;spacingLeft=6;overflow=hidden;rounded=0;sketch=0;fontColor=#46495D;strokeColor=#788AA3;fontSize=16;" vertex="1" parent="GZZZKhW5ikRwwze90NLK-127">
          <mxGeometry x="30" width="210" height="30" as="geometry">
            <mxRectangle width="210" height="30" as="alternateBounds" />
          </mxGeometry>
        </mxCell>
        <mxCell id="GZZZKhW5ikRwwze90NLK-130" style="shape=tableRow;horizontal=0;startSize=0;swimlaneHead=0;swimlaneBody=0;fillColor=none;collapsible=0;dropTarget=0;points=[[0,0.5],[1,0.5]];portConstraint=eastwest;top=0;left=0;right=0;bottom=0;rounded=0;sketch=0;fontColor=#46495D;strokeColor=#788AA3;fontSize=16;" vertex="1" parent="GZZZKhW5ikRwwze90NLK-89">
          <mxGeometry y="270" width="240" height="30" as="geometry" />
        </mxCell>
        <mxCell id="GZZZKhW5ikRwwze90NLK-131" style="shape=partialRectangle;connectable=0;fillColor=none;top=0;left=0;bottom=0;right=0;editable=1;overflow=hidden;rounded=0;sketch=0;fontColor=#46495D;strokeColor=#788AA3;fontSize=16;" vertex="1" parent="GZZZKhW5ikRwwze90NLK-130">
          <mxGeometry width="30" height="30" as="geometry">
            <mxRectangle width="30" height="30" as="alternateBounds" />
          </mxGeometry>
        </mxCell>
        <mxCell id="GZZZKhW5ikRwwze90NLK-132" value="alg_version string" style="shape=partialRectangle;connectable=0;fillColor=none;top=0;left=0;bottom=0;right=0;align=left;spacingLeft=6;overflow=hidden;rounded=0;sketch=0;fontColor=#46495D;strokeColor=#788AA3;fontSize=16;" vertex="1" parent="GZZZKhW5ikRwwze90NLK-130">
          <mxGeometry x="30" width="210" height="30" as="geometry">
            <mxRectangle width="210" height="30" as="alternateBounds" />
          </mxGeometry>
        </mxCell>
        <mxCell id="GZZZKhW5ikRwwze90NLK-133" style="shape=tableRow;horizontal=0;startSize=0;swimlaneHead=0;swimlaneBody=0;fillColor=none;collapsible=0;dropTarget=0;points=[[0,0.5],[1,0.5]];portConstraint=eastwest;top=0;left=0;right=0;bottom=0;rounded=0;sketch=0;fontColor=#46495D;strokeColor=#788AA3;fontSize=16;" vertex="1" parent="GZZZKhW5ikRwwze90NLK-89">
          <mxGeometry y="300" width="240" height="30" as="geometry" />
        </mxCell>
        <mxCell id="GZZZKhW5ikRwwze90NLK-134" style="shape=partialRectangle;connectable=0;fillColor=none;top=0;left=0;bottom=0;right=0;editable=1;overflow=hidden;rounded=0;sketch=0;fontColor=#46495D;strokeColor=#788AA3;fontSize=16;" vertex="1" parent="GZZZKhW5ikRwwze90NLK-133">
          <mxGeometry width="30" height="30" as="geometry">
            <mxRectangle width="30" height="30" as="alternateBounds" />
          </mxGeometry>
        </mxCell>
        <mxCell id="GZZZKhW5ikRwwze90NLK-135" value="feedback embeded" style="shape=partialRectangle;connectable=0;fillColor=none;top=0;left=0;bottom=0;right=0;align=left;spacingLeft=6;overflow=hidden;rounded=0;sketch=0;fontColor=#46495D;strokeColor=#788AA3;fontSize=16;" vertex="1" parent="GZZZKhW5ikRwwze90NLK-133">
          <mxGeometry x="30" width="210" height="30" as="geometry">
            <mxRectangle width="210" height="30" as="alternateBounds" />
          </mxGeometry>
        </mxCell>
        <mxCell id="GZZZKhW5ikRwwze90NLK-137" value="" style="edgeStyle=entityRelationEdgeStyle;fontSize=12;html=1;endArrow=ERoneToMany;rounded=1;sketch=0;fontColor=#46495D;strokeColor=#788AA3;fillColor=#B2C9AB;" edge="1" parent="1">
          <mxGeometry x="-0.8182" y="-450" width="100" height="100" relative="1" as="geometry">
            <mxPoint x="480" y="1501" as="sourcePoint" />
            <mxPoint x="600" y="1501" as="targetPoint" />
            <mxPoint as="offset" />
          </mxGeometry>
        </mxCell>
        <mxCell id="GZZZKhW5ikRwwze90NLK-138" value="expert_profile" style="shape=table;startSize=30;container=1;collapsible=1;childLayout=tableLayout;fixedRows=1;rowLines=0;fontStyle=1;align=center;resizeLast=1;rounded=1;fillColor=#d5e8d4;strokeColor=#82b366;fontSize=16;" vertex="1" parent="1">
          <mxGeometry x="80" y="1720" width="250" height="150" as="geometry" />
        </mxCell>
        <mxCell id="GZZZKhW5ikRwwze90NLK-139" value="" style="shape=partialRectangle;collapsible=0;dropTarget=0;pointerEvents=0;fillColor=none;points=[[0,0.5],[1,0.5]];portConstraint=eastwest;top=0;left=0;right=0;bottom=1;rounded=1;strokeColor=#788AA3;fontColor=#46495D;fontSize=16;" vertex="1" parent="GZZZKhW5ikRwwze90NLK-138">
          <mxGeometry y="30" width="250" height="30" as="geometry" />
        </mxCell>
        <mxCell id="GZZZKhW5ikRwwze90NLK-140" value="PK" style="shape=partialRectangle;overflow=hidden;connectable=0;fillColor=none;top=0;left=0;bottom=0;right=0;fontStyle=1;rounded=1;strokeColor=#788AA3;fontColor=#46495D;fontSize=16;" vertex="1" parent="GZZZKhW5ikRwwze90NLK-139">
          <mxGeometry width="30" height="30" as="geometry">
            <mxRectangle width="30" height="30" as="alternateBounds" />
          </mxGeometry>
        </mxCell>
        <mxCell id="GZZZKhW5ikRwwze90NLK-141" value="_id objectId NOT NULL " style="shape=partialRectangle;overflow=hidden;connectable=0;fillColor=none;top=0;left=0;bottom=0;right=0;align=left;spacingLeft=6;fontStyle=5;rounded=1;strokeColor=#788AA3;fontColor=#46495D;fontSize=16;" vertex="1" parent="GZZZKhW5ikRwwze90NLK-139">
          <mxGeometry x="30" width="220" height="30" as="geometry">
            <mxRectangle width="220" height="30" as="alternateBounds" />
          </mxGeometry>
        </mxCell>
        <mxCell id="GZZZKhW5ikRwwze90NLK-142" value="" style="shape=partialRectangle;collapsible=0;dropTarget=0;pointerEvents=0;fillColor=none;points=[[0,0.5],[1,0.5]];portConstraint=eastwest;top=0;left=0;right=0;bottom=0;rounded=1;strokeColor=#788AA3;fontColor=#46495D;fontSize=16;" vertex="1" parent="GZZZKhW5ikRwwze90NLK-138">
          <mxGeometry y="60" width="250" height="30" as="geometry" />
        </mxCell>
        <mxCell id="GZZZKhW5ikRwwze90NLK-143" value="" style="shape=partialRectangle;overflow=hidden;connectable=0;fillColor=none;top=0;left=0;bottom=0;right=0;rounded=1;strokeColor=#788AA3;fontColor=#46495D;fontSize=16;" vertex="1" parent="GZZZKhW5ikRwwze90NLK-142">
          <mxGeometry width="30" height="30" as="geometry">
            <mxRectangle width="30" height="30" as="alternateBounds" />
          </mxGeometry>
        </mxCell>
        <mxCell id="GZZZKhW5ikRwwze90NLK-144" value="id string" style="shape=partialRectangle;overflow=hidden;connectable=0;fillColor=none;top=0;left=0;bottom=0;right=0;align=left;spacingLeft=6;rounded=1;strokeColor=#788AA3;fontColor=#46495D;fontSize=16;" vertex="1" parent="GZZZKhW5ikRwwze90NLK-142">
          <mxGeometry x="30" width="220" height="30" as="geometry">
            <mxRectangle width="220" height="30" as="alternateBounds" />
          </mxGeometry>
        </mxCell>
        <mxCell id="GZZZKhW5ikRwwze90NLK-145" value="" style="shape=partialRectangle;collapsible=0;dropTarget=0;pointerEvents=0;fillColor=none;points=[[0,0.5],[1,0.5]];portConstraint=eastwest;top=0;left=0;right=0;bottom=0;rounded=1;strokeColor=#788AA3;fontColor=#46495D;fontSize=16;" vertex="1" parent="GZZZKhW5ikRwwze90NLK-138">
          <mxGeometry y="90" width="250" height="30" as="geometry" />
        </mxCell>
        <mxCell id="GZZZKhW5ikRwwze90NLK-146" value="" style="shape=partialRectangle;overflow=hidden;connectable=0;fillColor=none;top=0;left=0;bottom=0;right=0;rounded=1;strokeColor=#788AA3;fontColor=#46495D;fontSize=16;" vertex="1" parent="GZZZKhW5ikRwwze90NLK-145">
          <mxGeometry width="30" height="30" as="geometry">
            <mxRectangle width="30" height="30" as="alternateBounds" />
          </mxGeometry>
        </mxCell>
        <mxCell id="GZZZKhW5ikRwwze90NLK-147" value="keywords embeded" style="shape=partialRectangle;overflow=hidden;connectable=0;fillColor=none;top=0;left=0;bottom=0;right=0;align=left;spacingLeft=6;rounded=1;strokeColor=#788AA3;fontColor=#46495D;fontSize=16;" vertex="1" parent="GZZZKhW5ikRwwze90NLK-145">
          <mxGeometry x="30" width="220" height="30" as="geometry">
            <mxRectangle width="220" height="30" as="alternateBounds" />
          </mxGeometry>
        </mxCell>
        <mxCell id="GZZZKhW5ikRwwze90NLK-151" style="shape=partialRectangle;collapsible=0;dropTarget=0;pointerEvents=0;fillColor=none;points=[[0,0.5],[1,0.5]];portConstraint=eastwest;top=0;left=0;right=0;bottom=0;rounded=1;strokeColor=#788AA3;fontColor=#46495D;fontSize=16;" vertex="1" parent="GZZZKhW5ikRwwze90NLK-138">
          <mxGeometry y="120" width="250" height="30" as="geometry" />
        </mxCell>
        <mxCell id="GZZZKhW5ikRwwze90NLK-152" style="shape=partialRectangle;overflow=hidden;connectable=0;fillColor=none;top=0;left=0;bottom=0;right=0;rounded=1;strokeColor=#788AA3;fontColor=#46495D;fontSize=16;" vertex="1" parent="GZZZKhW5ikRwwze90NLK-151">
          <mxGeometry width="30" height="30" as="geometry">
            <mxRectangle width="30" height="30" as="alternateBounds" />
          </mxGeometry>
        </mxCell>
        <mxCell id="GZZZKhW5ikRwwze90NLK-153" value="themeriver embeded" style="shape=partialRectangle;overflow=hidden;connectable=0;fillColor=none;top=0;left=0;bottom=0;right=0;align=left;spacingLeft=6;rounded=1;strokeColor=#788AA3;fontColor=#46495D;fontSize=16;" vertex="1" parent="GZZZKhW5ikRwwze90NLK-151">
          <mxGeometry x="30" width="220" height="30" as="geometry">
            <mxRectangle width="220" height="30" as="alternateBounds" />
          </mxGeometry>
        </mxCell>
        <mxCell id="GZZZKhW5ikRwwze90NLK-157" value="expert_profile_keywords" style="shape=table;startSize=30;container=1;collapsible=1;childLayout=tableLayout;fixedRows=1;rowLines=0;fontStyle=1;align=center;resizeLast=1;rounded=1;fillColor=#d5e8d4;strokeColor=#82b366;fontSize=16;" vertex="1" parent="1">
          <mxGeometry x="440" y="1720" width="250" height="180" as="geometry" />
        </mxCell>
        <mxCell id="GZZZKhW5ikRwwze90NLK-158" value="" style="shape=partialRectangle;collapsible=0;dropTarget=0;pointerEvents=0;fillColor=none;points=[[0,0.5],[1,0.5]];portConstraint=eastwest;top=0;left=0;right=0;bottom=1;rounded=1;strokeColor=#788AA3;fontColor=#46495D;fontSize=16;" vertex="1" parent="GZZZKhW5ikRwwze90NLK-157">
          <mxGeometry y="30" width="250" height="30" as="geometry" />
        </mxCell>
        <mxCell id="GZZZKhW5ikRwwze90NLK-159" value="PK" style="shape=partialRectangle;overflow=hidden;connectable=0;fillColor=none;top=0;left=0;bottom=0;right=0;fontStyle=1;rounded=1;strokeColor=#788AA3;fontColor=#46495D;fontSize=16;" vertex="1" parent="GZZZKhW5ikRwwze90NLK-158">
          <mxGeometry width="30" height="30" as="geometry">
            <mxRectangle width="30" height="30" as="alternateBounds" />
          </mxGeometry>
        </mxCell>
        <mxCell id="GZZZKhW5ikRwwze90NLK-160" value="_id int NOT NULL " style="shape=partialRectangle;overflow=hidden;connectable=0;fillColor=none;top=0;left=0;bottom=0;right=0;align=left;spacingLeft=6;fontStyle=5;rounded=1;strokeColor=#788AA3;fontColor=#46495D;fontSize=16;" vertex="1" parent="GZZZKhW5ikRwwze90NLK-158">
          <mxGeometry x="30" width="220" height="30" as="geometry">
            <mxRectangle width="220" height="30" as="alternateBounds" />
          </mxGeometry>
        </mxCell>
        <mxCell id="GZZZKhW5ikRwwze90NLK-161" value="" style="shape=partialRectangle;collapsible=0;dropTarget=0;pointerEvents=0;fillColor=none;points=[[0,0.5],[1,0.5]];portConstraint=eastwest;top=0;left=0;right=0;bottom=0;rounded=1;strokeColor=#788AA3;fontColor=#46495D;fontSize=16;" vertex="1" parent="GZZZKhW5ikRwwze90NLK-157">
          <mxGeometry y="60" width="250" height="30" as="geometry" />
        </mxCell>
        <mxCell id="GZZZKhW5ikRwwze90NLK-162" value="" style="shape=partialRectangle;overflow=hidden;connectable=0;fillColor=none;top=0;left=0;bottom=0;right=0;rounded=1;strokeColor=#788AA3;fontColor=#46495D;fontSize=16;" vertex="1" parent="GZZZKhW5ikRwwze90NLK-161">
          <mxGeometry width="30" height="30" as="geometry">
            <mxRectangle width="30" height="30" as="alternateBounds" />
          </mxGeometry>
        </mxCell>
        <mxCell id="GZZZKhW5ikRwwze90NLK-163" value="t string" style="shape=partialRectangle;overflow=hidden;connectable=0;fillColor=none;top=0;left=0;bottom=0;right=0;align=left;spacingLeft=6;rounded=1;strokeColor=#788AA3;fontColor=#46495D;fontSize=16;" vertex="1" parent="GZZZKhW5ikRwwze90NLK-161">
          <mxGeometry x="30" width="220" height="30" as="geometry">
            <mxRectangle width="220" height="30" as="alternateBounds" />
          </mxGeometry>
        </mxCell>
        <mxCell id="GZZZKhW5ikRwwze90NLK-164" value="" style="shape=partialRectangle;collapsible=0;dropTarget=0;pointerEvents=0;fillColor=none;points=[[0,0.5],[1,0.5]];portConstraint=eastwest;top=0;left=0;right=0;bottom=0;rounded=1;strokeColor=#788AA3;fontColor=#46495D;fontSize=16;" vertex="1" parent="GZZZKhW5ikRwwze90NLK-157">
          <mxGeometry y="90" width="250" height="30" as="geometry" />
        </mxCell>
        <mxCell id="GZZZKhW5ikRwwze90NLK-165" value="" style="shape=partialRectangle;overflow=hidden;connectable=0;fillColor=none;top=0;left=0;bottom=0;right=0;rounded=1;strokeColor=#788AA3;fontColor=#46495D;fontSize=16;" vertex="1" parent="GZZZKhW5ikRwwze90NLK-164">
          <mxGeometry width="30" height="30" as="geometry">
            <mxRectangle width="30" height="30" as="alternateBounds" />
          </mxGeometry>
        </mxCell>
        <mxCell id="GZZZKhW5ikRwwze90NLK-166" value="w float" style="shape=partialRectangle;overflow=hidden;connectable=0;fillColor=none;top=0;left=0;bottom=0;right=0;align=left;spacingLeft=6;rounded=1;strokeColor=#788AA3;fontColor=#46495D;fontSize=16;" vertex="1" parent="GZZZKhW5ikRwwze90NLK-164">
          <mxGeometry x="30" width="220" height="30" as="geometry">
            <mxRectangle width="220" height="30" as="alternateBounds" />
          </mxGeometry>
        </mxCell>
        <mxCell id="GZZZKhW5ikRwwze90NLK-167" value="" style="shape=partialRectangle;collapsible=0;dropTarget=0;pointerEvents=0;fillColor=none;points=[[0,0.5],[1,0.5]];portConstraint=eastwest;top=0;left=0;right=0;bottom=0;rounded=1;strokeColor=#788AA3;fontColor=#46495D;fontSize=16;" vertex="1" parent="GZZZKhW5ikRwwze90NLK-157">
          <mxGeometry y="120" width="250" height="30" as="geometry" />
        </mxCell>
        <mxCell id="GZZZKhW5ikRwwze90NLK-168" value="" style="shape=partialRectangle;overflow=hidden;connectable=0;fillColor=none;top=0;left=0;bottom=0;right=0;rounded=1;strokeColor=#788AA3;fontColor=#46495D;fontSize=16;" vertex="1" parent="GZZZKhW5ikRwwze90NLK-167">
          <mxGeometry width="30" height="30" as="geometry">
            <mxRectangle width="30" height="30" as="alternateBounds" />
          </mxGeometry>
        </mxCell>
        <mxCell id="GZZZKhW5ikRwwze90NLK-169" value="cw float" style="shape=partialRectangle;overflow=hidden;connectable=0;fillColor=none;top=0;left=0;bottom=0;right=0;align=left;spacingLeft=6;rounded=1;strokeColor=#788AA3;fontColor=#46495D;fontSize=16;" vertex="1" parent="GZZZKhW5ikRwwze90NLK-167">
          <mxGeometry x="30" width="220" height="30" as="geometry">
            <mxRectangle width="220" height="30" as="alternateBounds" />
          </mxGeometry>
        </mxCell>
        <mxCell id="GZZZKhW5ikRwwze90NLK-170" style="shape=partialRectangle;collapsible=0;dropTarget=0;pointerEvents=0;fillColor=none;points=[[0,0.5],[1,0.5]];portConstraint=eastwest;top=0;left=0;right=0;bottom=0;rounded=1;strokeColor=#788AA3;fontColor=#46495D;fontSize=16;" vertex="1" parent="GZZZKhW5ikRwwze90NLK-157">
          <mxGeometry y="150" width="250" height="30" as="geometry" />
        </mxCell>
        <mxCell id="GZZZKhW5ikRwwze90NLK-171" style="shape=partialRectangle;overflow=hidden;connectable=0;fillColor=none;top=0;left=0;bottom=0;right=0;rounded=1;strokeColor=#788AA3;fontColor=#46495D;fontSize=16;" vertex="1" parent="GZZZKhW5ikRwwze90NLK-170">
          <mxGeometry width="30" height="30" as="geometry">
            <mxRectangle width="30" height="30" as="alternateBounds" />
          </mxGeometry>
        </mxCell>
        <mxCell id="GZZZKhW5ikRwwze90NLK-172" value="type string" style="shape=partialRectangle;overflow=hidden;connectable=0;fillColor=none;top=0;left=0;bottom=0;right=0;align=left;spacingLeft=6;rounded=1;strokeColor=#788AA3;fontColor=#46495D;fontSize=16;" vertex="1" parent="GZZZKhW5ikRwwze90NLK-170">
          <mxGeometry x="30" width="220" height="30" as="geometry">
            <mxRectangle width="220" height="30" as="alternateBounds" />
          </mxGeometry>
        </mxCell>
        <mxCell id="GZZZKhW5ikRwwze90NLK-173" value="expert_profile_themeriver" style="shape=table;startSize=30;container=1;collapsible=1;childLayout=tableLayout;fixedRows=1;rowLines=0;fontStyle=1;align=center;resizeLast=1;rounded=1;fillColor=#d5e8d4;strokeColor=#82b366;fontSize=16;" vertex="1" parent="1">
          <mxGeometry x="440" y="1960" width="250" height="150" as="geometry" />
        </mxCell>
        <mxCell id="GZZZKhW5ikRwwze90NLK-174" value="" style="shape=partialRectangle;collapsible=0;dropTarget=0;pointerEvents=0;fillColor=none;points=[[0,0.5],[1,0.5]];portConstraint=eastwest;top=0;left=0;right=0;bottom=1;rounded=1;strokeColor=#788AA3;fontColor=#46495D;fontSize=16;" vertex="1" parent="GZZZKhW5ikRwwze90NLK-173">
          <mxGeometry y="30" width="250" height="30" as="geometry" />
        </mxCell>
        <mxCell id="GZZZKhW5ikRwwze90NLK-175" value="PK" style="shape=partialRectangle;overflow=hidden;connectable=0;fillColor=none;top=0;left=0;bottom=0;right=0;fontStyle=1;rounded=1;strokeColor=#788AA3;fontColor=#46495D;fontSize=16;" vertex="1" parent="GZZZKhW5ikRwwze90NLK-174">
          <mxGeometry width="30" height="30" as="geometry">
            <mxRectangle width="30" height="30" as="alternateBounds" />
          </mxGeometry>
        </mxCell>
        <mxCell id="GZZZKhW5ikRwwze90NLK-176" value="_id int NOT NULL " style="shape=partialRectangle;overflow=hidden;connectable=0;fillColor=none;top=0;left=0;bottom=0;right=0;align=left;spacingLeft=6;fontStyle=5;rounded=1;strokeColor=#788AA3;fontColor=#46495D;fontSize=16;" vertex="1" parent="GZZZKhW5ikRwwze90NLK-174">
          <mxGeometry x="30" width="220" height="30" as="geometry">
            <mxRectangle width="220" height="30" as="alternateBounds" />
          </mxGeometry>
        </mxCell>
        <mxCell id="GZZZKhW5ikRwwze90NLK-177" value="" style="shape=partialRectangle;collapsible=0;dropTarget=0;pointerEvents=0;fillColor=none;points=[[0,0.5],[1,0.5]];portConstraint=eastwest;top=0;left=0;right=0;bottom=0;rounded=1;strokeColor=#788AA3;fontColor=#46495D;fontSize=16;" vertex="1" parent="GZZZKhW5ikRwwze90NLK-173">
          <mxGeometry y="60" width="250" height="30" as="geometry" />
        </mxCell>
        <mxCell id="GZZZKhW5ikRwwze90NLK-178" value="" style="shape=partialRectangle;overflow=hidden;connectable=0;fillColor=none;top=0;left=0;bottom=0;right=0;rounded=1;strokeColor=#788AA3;fontColor=#46495D;fontSize=16;" vertex="1" parent="GZZZKhW5ikRwwze90NLK-177">
          <mxGeometry width="30" height="30" as="geometry">
            <mxRectangle width="30" height="30" as="alternateBounds" />
          </mxGeometry>
        </mxCell>
        <mxCell id="GZZZKhW5ikRwwze90NLK-179" value="t string" style="shape=partialRectangle;overflow=hidden;connectable=0;fillColor=none;top=0;left=0;bottom=0;right=0;align=left;spacingLeft=6;rounded=1;strokeColor=#788AA3;fontColor=#46495D;fontSize=16;" vertex="1" parent="GZZZKhW5ikRwwze90NLK-177">
          <mxGeometry x="30" width="220" height="30" as="geometry">
            <mxRectangle width="220" height="30" as="alternateBounds" />
          </mxGeometry>
        </mxCell>
        <mxCell id="GZZZKhW5ikRwwze90NLK-180" value="" style="shape=partialRectangle;collapsible=0;dropTarget=0;pointerEvents=0;fillColor=none;points=[[0,0.5],[1,0.5]];portConstraint=eastwest;top=0;left=0;right=0;bottom=0;rounded=1;strokeColor=#788AA3;fontColor=#46495D;fontSize=16;" vertex="1" parent="GZZZKhW5ikRwwze90NLK-173">
          <mxGeometry y="90" width="250" height="30" as="geometry" />
        </mxCell>
        <mxCell id="GZZZKhW5ikRwwze90NLK-181" value="" style="shape=partialRectangle;overflow=hidden;connectable=0;fillColor=none;top=0;left=0;bottom=0;right=0;rounded=1;strokeColor=#788AA3;fontColor=#46495D;fontSize=16;" vertex="1" parent="GZZZKhW5ikRwwze90NLK-180">
          <mxGeometry width="30" height="30" as="geometry">
            <mxRectangle width="30" height="30" as="alternateBounds" />
          </mxGeometry>
        </mxCell>
        <mxCell id="GZZZKhW5ikRwwze90NLK-182" value="year array[int]" style="shape=partialRectangle;overflow=hidden;connectable=0;fillColor=none;top=0;left=0;bottom=0;right=0;align=left;spacingLeft=6;rounded=1;strokeColor=#788AA3;fontColor=#46495D;fontSize=16;" vertex="1" parent="GZZZKhW5ikRwwze90NLK-180">
          <mxGeometry x="30" width="220" height="30" as="geometry">
            <mxRectangle width="220" height="30" as="alternateBounds" />
          </mxGeometry>
        </mxCell>
        <mxCell id="GZZZKhW5ikRwwze90NLK-183" value="" style="shape=partialRectangle;collapsible=0;dropTarget=0;pointerEvents=0;fillColor=none;points=[[0,0.5],[1,0.5]];portConstraint=eastwest;top=0;left=0;right=0;bottom=0;rounded=1;strokeColor=#788AA3;fontColor=#46495D;fontSize=16;" vertex="1" parent="GZZZKhW5ikRwwze90NLK-173">
          <mxGeometry y="120" width="250" height="30" as="geometry" />
        </mxCell>
        <mxCell id="GZZZKhW5ikRwwze90NLK-184" value="" style="shape=partialRectangle;overflow=hidden;connectable=0;fillColor=none;top=0;left=0;bottom=0;right=0;rounded=1;strokeColor=#788AA3;fontColor=#46495D;fontSize=16;" vertex="1" parent="GZZZKhW5ikRwwze90NLK-183">
          <mxGeometry width="30" height="30" as="geometry">
            <mxRectangle width="30" height="30" as="alternateBounds" />
          </mxGeometry>
        </mxCell>
        <mxCell id="GZZZKhW5ikRwwze90NLK-185" value="n int" style="shape=partialRectangle;overflow=hidden;connectable=0;fillColor=none;top=0;left=0;bottom=0;right=0;align=left;spacingLeft=6;rounded=1;strokeColor=#788AA3;fontColor=#46495D;fontSize=16;" vertex="1" parent="GZZZKhW5ikRwwze90NLK-183">
          <mxGeometry x="30" width="220" height="30" as="geometry">
            <mxRectangle width="220" height="30" as="alternateBounds" />
          </mxGeometry>
        </mxCell>
        <mxCell id="GZZZKhW5ikRwwze90NLK-189" value="" style="edgeStyle=entityRelationEdgeStyle;fontSize=12;html=1;endArrow=ERoneToMany;rounded=1;sketch=0;fontColor=#46495D;strokeColor=#788AA3;fillColor=#B2C9AB;" edge="1" parent="1">
          <mxGeometry width="100" height="100" relative="1" as="geometry">
            <mxPoint x="330" y="1800" as="sourcePoint" />
            <mxPoint x="440" y="1800" as="targetPoint" />
          </mxGeometry>
        </mxCell>
        <mxCell id="GZZZKhW5ikRwwze90NLK-190" value="" style="edgeStyle=entityRelationEdgeStyle;fontSize=12;html=1;endArrow=ERoneToMany;rounded=1;sketch=0;fontColor=#46495D;strokeColor=#788AA3;fillColor=#B2C9AB;exitX=1;exitY=0.5;exitDx=0;exitDy=0;entryX=0;entryY=0.5;entryDx=0;entryDy=0;" edge="1" parent="1" source="GZZZKhW5ikRwwze90NLK-145" target="GZZZKhW5ikRwwze90NLK-177">
          <mxGeometry width="100" height="100" relative="1" as="geometry">
            <mxPoint x="340" y="1980" as="sourcePoint" />
            <mxPoint x="450" y="1980" as="targetPoint" />
          </mxGeometry>
        </mxCell>
        <mxCell id="GZZZKhW5ikRwwze90NLK-191" value="users" style="shape=table;startSize=30;container=1;collapsible=1;childLayout=tableLayout;fixedRows=1;rowLines=0;fontStyle=1;align=center;resizeLast=1;rounded=1;fillColor=#d5e8d4;strokeColor=#82b366;fontSize=16;" vertex="1" parent="1">
          <mxGeometry x="840" y="2120" width="250" height="360" as="geometry" />
        </mxCell>
        <mxCell id="GZZZKhW5ikRwwze90NLK-192" value="" style="shape=partialRectangle;collapsible=0;dropTarget=0;pointerEvents=0;fillColor=none;points=[[0,0.5],[1,0.5]];portConstraint=eastwest;top=0;left=0;right=0;bottom=1;rounded=1;strokeColor=#788AA3;fontColor=#46495D;fontSize=16;" vertex="1" parent="GZZZKhW5ikRwwze90NLK-191">
          <mxGeometry y="30" width="250" height="30" as="geometry" />
        </mxCell>
        <mxCell id="GZZZKhW5ikRwwze90NLK-193" value="PK" style="shape=partialRectangle;overflow=hidden;connectable=0;fillColor=none;top=0;left=0;bottom=0;right=0;fontStyle=1;rounded=1;strokeColor=#788AA3;fontColor=#46495D;fontSize=16;" vertex="1" parent="GZZZKhW5ikRwwze90NLK-192">
          <mxGeometry width="30" height="30" as="geometry">
            <mxRectangle width="30" height="30" as="alternateBounds" />
          </mxGeometry>
        </mxCell>
        <mxCell id="GZZZKhW5ikRwwze90NLK-194" value="_id objectId NOT NULL " style="shape=partialRectangle;overflow=hidden;connectable=0;fillColor=none;top=0;left=0;bottom=0;right=0;align=left;spacingLeft=6;fontStyle=5;rounded=1;strokeColor=#788AA3;fontColor=#46495D;fontSize=16;" vertex="1" parent="GZZZKhW5ikRwwze90NLK-192">
          <mxGeometry x="30" width="220" height="30" as="geometry">
            <mxRectangle width="220" height="30" as="alternateBounds" />
          </mxGeometry>
        </mxCell>
        <mxCell id="GZZZKhW5ikRwwze90NLK-195" value="" style="shape=partialRectangle;collapsible=0;dropTarget=0;pointerEvents=0;fillColor=none;points=[[0,0.5],[1,0.5]];portConstraint=eastwest;top=0;left=0;right=0;bottom=0;rounded=1;strokeColor=#788AA3;fontColor=#46495D;fontSize=16;" vertex="1" parent="GZZZKhW5ikRwwze90NLK-191">
          <mxGeometry y="60" width="250" height="30" as="geometry" />
        </mxCell>
        <mxCell id="GZZZKhW5ikRwwze90NLK-196" value="" style="shape=partialRectangle;overflow=hidden;connectable=0;fillColor=none;top=0;left=0;bottom=0;right=0;rounded=1;strokeColor=#788AA3;fontColor=#46495D;fontSize=16;" vertex="1" parent="GZZZKhW5ikRwwze90NLK-195">
          <mxGeometry width="30" height="30" as="geometry">
            <mxRectangle width="30" height="30" as="alternateBounds" />
          </mxGeometry>
        </mxCell>
        <mxCell id="GZZZKhW5ikRwwze90NLK-197" value="name string" style="shape=partialRectangle;overflow=hidden;connectable=0;fillColor=none;top=0;left=0;bottom=0;right=0;align=left;spacingLeft=6;rounded=1;strokeColor=#788AA3;fontColor=#46495D;fontSize=16;" vertex="1" parent="GZZZKhW5ikRwwze90NLK-195">
          <mxGeometry x="30" width="220" height="30" as="geometry">
            <mxRectangle width="220" height="30" as="alternateBounds" />
          </mxGeometry>
        </mxCell>
        <mxCell id="GZZZKhW5ikRwwze90NLK-198" value="" style="shape=partialRectangle;collapsible=0;dropTarget=0;pointerEvents=0;fillColor=none;points=[[0,0.5],[1,0.5]];portConstraint=eastwest;top=0;left=0;right=0;bottom=0;rounded=1;strokeColor=#788AA3;fontColor=#46495D;fontSize=16;" vertex="1" parent="GZZZKhW5ikRwwze90NLK-191">
          <mxGeometry y="90" width="250" height="30" as="geometry" />
        </mxCell>
        <mxCell id="GZZZKhW5ikRwwze90NLK-199" value="" style="shape=partialRectangle;overflow=hidden;connectable=0;fillColor=none;top=0;left=0;bottom=0;right=0;rounded=1;strokeColor=#788AA3;fontColor=#46495D;fontSize=16;" vertex="1" parent="GZZZKhW5ikRwwze90NLK-198">
          <mxGeometry width="30" height="30" as="geometry">
            <mxRectangle width="30" height="30" as="alternateBounds" />
          </mxGeometry>
        </mxCell>
        <mxCell id="GZZZKhW5ikRwwze90NLK-200" value="phone string" style="shape=partialRectangle;overflow=hidden;connectable=0;fillColor=none;top=0;left=0;bottom=0;right=0;align=left;spacingLeft=6;rounded=1;strokeColor=#788AA3;fontColor=#46495D;fontSize=16;" vertex="1" parent="GZZZKhW5ikRwwze90NLK-198">
          <mxGeometry x="30" width="220" height="30" as="geometry">
            <mxRectangle width="220" height="30" as="alternateBounds" />
          </mxGeometry>
        </mxCell>
        <mxCell id="GZZZKhW5ikRwwze90NLK-201" value="" style="shape=partialRectangle;collapsible=0;dropTarget=0;pointerEvents=0;fillColor=none;points=[[0,0.5],[1,0.5]];portConstraint=eastwest;top=0;left=0;right=0;bottom=0;rounded=1;strokeColor=#788AA3;fontColor=#46495D;fontSize=16;" vertex="1" parent="GZZZKhW5ikRwwze90NLK-191">
          <mxGeometry y="120" width="250" height="30" as="geometry" />
        </mxCell>
        <mxCell id="GZZZKhW5ikRwwze90NLK-202" value="" style="shape=partialRectangle;overflow=hidden;connectable=0;fillColor=none;top=0;left=0;bottom=0;right=0;rounded=1;strokeColor=#788AA3;fontColor=#46495D;fontSize=16;" vertex="1" parent="GZZZKhW5ikRwwze90NLK-201">
          <mxGeometry width="30" height="30" as="geometry">
            <mxRectangle width="30" height="30" as="alternateBounds" />
          </mxGeometry>
        </mxCell>
        <mxCell id="GZZZKhW5ikRwwze90NLK-203" value="email string" style="shape=partialRectangle;overflow=hidden;connectable=0;fillColor=none;top=0;left=0;bottom=0;right=0;align=left;spacingLeft=6;rounded=1;strokeColor=#788AA3;fontColor=#46495D;fontSize=16;" vertex="1" parent="GZZZKhW5ikRwwze90NLK-201">
          <mxGeometry x="30" width="220" height="30" as="geometry">
            <mxRectangle width="220" height="30" as="alternateBounds" />
          </mxGeometry>
        </mxCell>
        <mxCell id="GZZZKhW5ikRwwze90NLK-204" style="shape=partialRectangle;collapsible=0;dropTarget=0;pointerEvents=0;fillColor=none;points=[[0,0.5],[1,0.5]];portConstraint=eastwest;top=0;left=0;right=0;bottom=0;rounded=1;strokeColor=#788AA3;fontColor=#46495D;fontSize=16;" vertex="1" parent="GZZZKhW5ikRwwze90NLK-191">
          <mxGeometry y="150" width="250" height="30" as="geometry" />
        </mxCell>
        <mxCell id="GZZZKhW5ikRwwze90NLK-205" style="shape=partialRectangle;overflow=hidden;connectable=0;fillColor=none;top=0;left=0;bottom=0;right=0;rounded=1;strokeColor=#788AA3;fontColor=#46495D;fontSize=16;" vertex="1" parent="GZZZKhW5ikRwwze90NLK-204">
          <mxGeometry width="30" height="30" as="geometry">
            <mxRectangle width="30" height="30" as="alternateBounds" />
          </mxGeometry>
        </mxCell>
        <mxCell id="GZZZKhW5ikRwwze90NLK-206" value="department string" style="shape=partialRectangle;overflow=hidden;connectable=0;fillColor=none;top=0;left=0;bottom=0;right=0;align=left;spacingLeft=6;rounded=1;strokeColor=#788AA3;fontColor=#46495D;fontSize=16;" vertex="1" parent="GZZZKhW5ikRwwze90NLK-204">
          <mxGeometry x="30" width="220" height="30" as="geometry">
            <mxRectangle width="220" height="30" as="alternateBounds" />
          </mxGeometry>
        </mxCell>
        <mxCell id="GZZZKhW5ikRwwze90NLK-207" style="shape=partialRectangle;collapsible=0;dropTarget=0;pointerEvents=0;fillColor=none;points=[[0,0.5],[1,0.5]];portConstraint=eastwest;top=0;left=0;right=0;bottom=0;rounded=1;strokeColor=#788AA3;fontColor=#46495D;fontSize=16;" vertex="1" parent="GZZZKhW5ikRwwze90NLK-191">
          <mxGeometry y="180" width="250" height="30" as="geometry" />
        </mxCell>
        <mxCell id="GZZZKhW5ikRwwze90NLK-208" style="shape=partialRectangle;overflow=hidden;connectable=0;fillColor=none;top=0;left=0;bottom=0;right=0;rounded=1;strokeColor=#788AA3;fontColor=#46495D;fontSize=16;" vertex="1" parent="GZZZKhW5ikRwwze90NLK-207">
          <mxGeometry width="30" height="30" as="geometry">
            <mxRectangle width="30" height="30" as="alternateBounds" />
          </mxGeometry>
        </mxCell>
        <mxCell id="GZZZKhW5ikRwwze90NLK-209" value="description string" style="shape=partialRectangle;overflow=hidden;connectable=0;fillColor=none;top=0;left=0;bottom=0;right=0;align=left;spacingLeft=6;rounded=1;strokeColor=#788AA3;fontColor=#46495D;fontSize=16;" vertex="1" parent="GZZZKhW5ikRwwze90NLK-207">
          <mxGeometry x="30" width="220" height="30" as="geometry">
            <mxRectangle width="220" height="30" as="alternateBounds" />
          </mxGeometry>
        </mxCell>
        <mxCell id="GZZZKhW5ikRwwze90NLK-210" style="shape=partialRectangle;collapsible=0;dropTarget=0;pointerEvents=0;fillColor=none;points=[[0,0.5],[1,0.5]];portConstraint=eastwest;top=0;left=0;right=0;bottom=0;rounded=1;strokeColor=#788AA3;fontColor=#46495D;fontSize=16;" vertex="1" parent="GZZZKhW5ikRwwze90NLK-191">
          <mxGeometry y="210" width="250" height="30" as="geometry" />
        </mxCell>
        <mxCell id="GZZZKhW5ikRwwze90NLK-211" style="shape=partialRectangle;overflow=hidden;connectable=0;fillColor=none;top=0;left=0;bottom=0;right=0;rounded=1;strokeColor=#788AA3;fontColor=#46495D;fontSize=16;" vertex="1" parent="GZZZKhW5ikRwwze90NLK-210">
          <mxGeometry width="30" height="30" as="geometry">
            <mxRectangle width="30" height="30" as="alternateBounds" />
          </mxGeometry>
        </mxCell>
        <mxCell id="GZZZKhW5ikRwwze90NLK-212" value="password string" style="shape=partialRectangle;overflow=hidden;connectable=0;fillColor=none;top=0;left=0;bottom=0;right=0;align=left;spacingLeft=6;rounded=1;strokeColor=#788AA3;fontColor=#46495D;fontSize=16;" vertex="1" parent="GZZZKhW5ikRwwze90NLK-210">
          <mxGeometry x="30" width="220" height="30" as="geometry">
            <mxRectangle width="220" height="30" as="alternateBounds" />
          </mxGeometry>
        </mxCell>
        <mxCell id="GZZZKhW5ikRwwze90NLK-213" style="shape=partialRectangle;collapsible=0;dropTarget=0;pointerEvents=0;fillColor=none;points=[[0,0.5],[1,0.5]];portConstraint=eastwest;top=0;left=0;right=0;bottom=0;rounded=1;strokeColor=#788AA3;fontColor=#46495D;fontSize=16;" vertex="1" parent="GZZZKhW5ikRwwze90NLK-191">
          <mxGeometry y="240" width="250" height="30" as="geometry" />
        </mxCell>
        <mxCell id="GZZZKhW5ikRwwze90NLK-214" style="shape=partialRectangle;overflow=hidden;connectable=0;fillColor=none;top=0;left=0;bottom=0;right=0;rounded=1;strokeColor=#788AA3;fontColor=#46495D;fontSize=16;" vertex="1" parent="GZZZKhW5ikRwwze90NLK-213">
          <mxGeometry width="30" height="30" as="geometry">
            <mxRectangle width="30" height="30" as="alternateBounds" />
          </mxGeometry>
        </mxCell>
        <mxCell id="GZZZKhW5ikRwwze90NLK-215" value="is_active boolean" style="shape=partialRectangle;overflow=hidden;connectable=0;fillColor=none;top=0;left=0;bottom=0;right=0;align=left;spacingLeft=6;rounded=1;strokeColor=#788AA3;fontColor=#46495D;fontSize=16;" vertex="1" parent="GZZZKhW5ikRwwze90NLK-213">
          <mxGeometry x="30" width="220" height="30" as="geometry">
            <mxRectangle width="220" height="30" as="alternateBounds" />
          </mxGeometry>
        </mxCell>
        <mxCell id="GZZZKhW5ikRwwze90NLK-216" style="shape=partialRectangle;collapsible=0;dropTarget=0;pointerEvents=0;fillColor=none;points=[[0,0.5],[1,0.5]];portConstraint=eastwest;top=0;left=0;right=0;bottom=0;rounded=1;strokeColor=#788AA3;fontColor=#46495D;fontSize=16;" vertex="1" parent="GZZZKhW5ikRwwze90NLK-191">
          <mxGeometry y="270" width="250" height="30" as="geometry" />
        </mxCell>
        <mxCell id="GZZZKhW5ikRwwze90NLK-217" style="shape=partialRectangle;overflow=hidden;connectable=0;fillColor=none;top=0;left=0;bottom=0;right=0;rounded=1;strokeColor=#788AA3;fontColor=#46495D;fontSize=16;" vertex="1" parent="GZZZKhW5ikRwwze90NLK-216">
          <mxGeometry width="30" height="30" as="geometry">
            <mxRectangle width="30" height="30" as="alternateBounds" />
          </mxGeometry>
        </mxCell>
        <mxCell id="GZZZKhW5ikRwwze90NLK-218" value="updated_at date" style="shape=partialRectangle;overflow=hidden;connectable=0;fillColor=none;top=0;left=0;bottom=0;right=0;align=left;spacingLeft=6;rounded=1;strokeColor=#788AA3;fontColor=#46495D;fontSize=16;" vertex="1" parent="GZZZKhW5ikRwwze90NLK-216">
          <mxGeometry x="30" width="220" height="30" as="geometry">
            <mxRectangle width="220" height="30" as="alternateBounds" />
          </mxGeometry>
        </mxCell>
        <mxCell id="GZZZKhW5ikRwwze90NLK-295" style="shape=partialRectangle;collapsible=0;dropTarget=0;pointerEvents=0;fillColor=none;points=[[0,0.5],[1,0.5]];portConstraint=eastwest;top=0;left=0;right=0;bottom=0;rounded=1;strokeColor=#788AA3;fontColor=#46495D;fontSize=16;" vertex="1" parent="GZZZKhW5ikRwwze90NLK-191">
          <mxGeometry y="300" width="250" height="30" as="geometry" />
        </mxCell>
        <mxCell id="GZZZKhW5ikRwwze90NLK-296" style="shape=partialRectangle;overflow=hidden;connectable=0;fillColor=none;top=0;left=0;bottom=0;right=0;rounded=1;strokeColor=#788AA3;fontColor=#46495D;fontSize=16;" vertex="1" parent="GZZZKhW5ikRwwze90NLK-295">
          <mxGeometry width="30" height="30" as="geometry">
            <mxRectangle width="30" height="30" as="alternateBounds" />
          </mxGeometry>
        </mxCell>
        <mxCell id="GZZZKhW5ikRwwze90NLK-297" value="settings embeded" style="shape=partialRectangle;overflow=hidden;connectable=0;fillColor=none;top=0;left=0;bottom=0;right=0;align=left;spacingLeft=6;rounded=1;strokeColor=#788AA3;fontColor=#46495D;fontSize=16;" vertex="1" parent="GZZZKhW5ikRwwze90NLK-295">
          <mxGeometry x="30" width="220" height="30" as="geometry">
            <mxRectangle width="220" height="30" as="alternateBounds" />
          </mxGeometry>
        </mxCell>
        <mxCell id="GZZZKhW5ikRwwze90NLK-298" style="shape=partialRectangle;collapsible=0;dropTarget=0;pointerEvents=0;fillColor=none;points=[[0,0.5],[1,0.5]];portConstraint=eastwest;top=0;left=0;right=0;bottom=0;rounded=1;strokeColor=#788AA3;fontColor=#46495D;fontSize=16;" vertex="1" parent="GZZZKhW5ikRwwze90NLK-191">
          <mxGeometry y="330" width="250" height="30" as="geometry" />
        </mxCell>
        <mxCell id="GZZZKhW5ikRwwze90NLK-299" style="shape=partialRectangle;overflow=hidden;connectable=0;fillColor=none;top=0;left=0;bottom=0;right=0;rounded=1;strokeColor=#788AA3;fontColor=#46495D;fontSize=16;" vertex="1" parent="GZZZKhW5ikRwwze90NLK-298">
          <mxGeometry width="30" height="30" as="geometry">
            <mxRectangle width="30" height="30" as="alternateBounds" />
          </mxGeometry>
        </mxCell>
        <mxCell id="GZZZKhW5ikRwwze90NLK-300" value="subject_codes array[string]" style="shape=partialRectangle;overflow=hidden;connectable=0;fillColor=none;top=0;left=0;bottom=0;right=0;align=left;spacingLeft=6;rounded=1;strokeColor=#788AA3;fontColor=#46495D;fontSize=16;" vertex="1" parent="GZZZKhW5ikRwwze90NLK-298">
          <mxGeometry x="30" width="220" height="30" as="geometry">
            <mxRectangle width="220" height="30" as="alternateBounds" />
          </mxGeometry>
        </mxCell>
        <mxCell id="GZZZKhW5ikRwwze90NLK-219" value="profiles_relation_v2" style="shape=table;startSize=30;container=1;collapsible=1;childLayout=tableLayout;fixedRows=1;rowLines=0;fontStyle=1;align=center;resizeLast=1;rounded=1;fillColor=#d5e8d4;strokeColor=#82b366;fontSize=16;" vertex="1" parent="1">
          <mxGeometry x="80" y="2160" width="250" height="150" as="geometry" />
        </mxCell>
        <mxCell id="GZZZKhW5ikRwwze90NLK-220" value="" style="shape=partialRectangle;collapsible=0;dropTarget=0;pointerEvents=0;fillColor=none;points=[[0,0.5],[1,0.5]];portConstraint=eastwest;top=0;left=0;right=0;bottom=1;rounded=1;strokeColor=#788AA3;fontColor=#46495D;fontSize=16;" vertex="1" parent="GZZZKhW5ikRwwze90NLK-219">
          <mxGeometry y="30" width="250" height="30" as="geometry" />
        </mxCell>
        <mxCell id="GZZZKhW5ikRwwze90NLK-221" value="PK" style="shape=partialRectangle;overflow=hidden;connectable=0;fillColor=none;top=0;left=0;bottom=0;right=0;fontStyle=1;rounded=1;strokeColor=#788AA3;fontColor=#46495D;fontSize=16;" vertex="1" parent="GZZZKhW5ikRwwze90NLK-220">
          <mxGeometry width="30" height="30" as="geometry">
            <mxRectangle width="30" height="30" as="alternateBounds" />
          </mxGeometry>
        </mxCell>
        <mxCell id="GZZZKhW5ikRwwze90NLK-222" value="_id objectId NOT NULL " style="shape=partialRectangle;overflow=hidden;connectable=0;fillColor=none;top=0;left=0;bottom=0;right=0;align=left;spacingLeft=6;fontStyle=5;rounded=1;strokeColor=#788AA3;fontColor=#46495D;fontSize=16;" vertex="1" parent="GZZZKhW5ikRwwze90NLK-220">
          <mxGeometry x="30" width="220" height="30" as="geometry">
            <mxRectangle width="220" height="30" as="alternateBounds" />
          </mxGeometry>
        </mxCell>
        <mxCell id="GZZZKhW5ikRwwze90NLK-223" value="" style="shape=partialRectangle;collapsible=0;dropTarget=0;pointerEvents=0;fillColor=none;points=[[0,0.5],[1,0.5]];portConstraint=eastwest;top=0;left=0;right=0;bottom=0;rounded=1;strokeColor=#788AA3;fontColor=#46495D;fontSize=16;" vertex="1" parent="GZZZKhW5ikRwwze90NLK-219">
          <mxGeometry y="60" width="250" height="30" as="geometry" />
        </mxCell>
        <mxCell id="GZZZKhW5ikRwwze90NLK-224" value="" style="shape=partialRectangle;overflow=hidden;connectable=0;fillColor=none;top=0;left=0;bottom=0;right=0;rounded=1;strokeColor=#788AA3;fontColor=#46495D;fontSize=16;" vertex="1" parent="GZZZKhW5ikRwwze90NLK-223">
          <mxGeometry width="30" height="30" as="geometry">
            <mxRectangle width="30" height="30" as="alternateBounds" />
          </mxGeometry>
        </mxCell>
        <mxCell id="GZZZKhW5ikRwwze90NLK-225" value="id string" style="shape=partialRectangle;overflow=hidden;connectable=0;fillColor=none;top=0;left=0;bottom=0;right=0;align=left;spacingLeft=6;rounded=1;strokeColor=#788AA3;fontColor=#46495D;fontSize=16;" vertex="1" parent="GZZZKhW5ikRwwze90NLK-223">
          <mxGeometry x="30" width="220" height="30" as="geometry">
            <mxRectangle width="220" height="30" as="alternateBounds" />
          </mxGeometry>
        </mxCell>
        <mxCell id="GZZZKhW5ikRwwze90NLK-226" value="" style="shape=partialRectangle;collapsible=0;dropTarget=0;pointerEvents=0;fillColor=none;points=[[0,0.5],[1,0.5]];portConstraint=eastwest;top=0;left=0;right=0;bottom=0;rounded=1;strokeColor=#788AA3;fontColor=#46495D;fontSize=16;" vertex="1" parent="GZZZKhW5ikRwwze90NLK-219">
          <mxGeometry y="90" width="250" height="30" as="geometry" />
        </mxCell>
        <mxCell id="GZZZKhW5ikRwwze90NLK-227" value="" style="shape=partialRectangle;overflow=hidden;connectable=0;fillColor=none;top=0;left=0;bottom=0;right=0;rounded=1;strokeColor=#788AA3;fontColor=#46495D;fontSize=16;" vertex="1" parent="GZZZKhW5ikRwwze90NLK-226">
          <mxGeometry width="30" height="30" as="geometry">
            <mxRectangle width="30" height="30" as="alternateBounds" />
          </mxGeometry>
        </mxCell>
        <mxCell id="GZZZKhW5ikRwwze90NLK-228" value="count int" style="shape=partialRectangle;overflow=hidden;connectable=0;fillColor=none;top=0;left=0;bottom=0;right=0;align=left;spacingLeft=6;rounded=1;strokeColor=#788AA3;fontColor=#46495D;fontSize=16;" vertex="1" parent="GZZZKhW5ikRwwze90NLK-226">
          <mxGeometry x="30" width="220" height="30" as="geometry">
            <mxRectangle width="220" height="30" as="alternateBounds" />
          </mxGeometry>
        </mxCell>
        <mxCell id="GZZZKhW5ikRwwze90NLK-229" value="" style="shape=partialRectangle;collapsible=0;dropTarget=0;pointerEvents=0;fillColor=none;points=[[0,0.5],[1,0.5]];portConstraint=eastwest;top=0;left=0;right=0;bottom=0;rounded=1;strokeColor=#788AA3;fontColor=#46495D;fontSize=16;" vertex="1" parent="GZZZKhW5ikRwwze90NLK-219">
          <mxGeometry y="120" width="250" height="30" as="geometry" />
        </mxCell>
        <mxCell id="GZZZKhW5ikRwwze90NLK-230" value="" style="shape=partialRectangle;overflow=hidden;connectable=0;fillColor=none;top=0;left=0;bottom=0;right=0;rounded=1;strokeColor=#788AA3;fontColor=#46495D;fontSize=16;" vertex="1" parent="GZZZKhW5ikRwwze90NLK-229">
          <mxGeometry width="30" height="30" as="geometry">
            <mxRectangle width="30" height="30" as="alternateBounds" />
          </mxGeometry>
        </mxCell>
        <mxCell id="GZZZKhW5ikRwwze90NLK-231" value="data embeded" style="shape=partialRectangle;overflow=hidden;connectable=0;fillColor=none;top=0;left=0;bottom=0;right=0;align=left;spacingLeft=6;rounded=1;strokeColor=#788AA3;fontColor=#46495D;fontSize=16;" vertex="1" parent="GZZZKhW5ikRwwze90NLK-229">
          <mxGeometry x="30" width="220" height="30" as="geometry">
            <mxRectangle width="220" height="30" as="alternateBounds" />
          </mxGeometry>
        </mxCell>
        <mxCell id="GZZZKhW5ikRwwze90NLK-232" value="profiles_relation_v2_data" style="shape=table;startSize=30;container=1;collapsible=1;childLayout=tableLayout;fixedRows=1;rowLines=0;fontStyle=1;align=center;resizeLast=1;rounded=1;fillColor=#d5e8d4;strokeColor=#82b366;fontSize=16;" vertex="1" parent="1">
          <mxGeometry x="440" y="2160" width="250" height="210" as="geometry" />
        </mxCell>
        <mxCell id="GZZZKhW5ikRwwze90NLK-233" value="" style="shape=partialRectangle;collapsible=0;dropTarget=0;pointerEvents=0;fillColor=none;points=[[0,0.5],[1,0.5]];portConstraint=eastwest;top=0;left=0;right=0;bottom=1;rounded=1;strokeColor=#788AA3;fontColor=#46495D;fontSize=16;" vertex="1" parent="GZZZKhW5ikRwwze90NLK-232">
          <mxGeometry y="30" width="250" height="30" as="geometry" />
        </mxCell>
        <mxCell id="GZZZKhW5ikRwwze90NLK-234" value="PK" style="shape=partialRectangle;overflow=hidden;connectable=0;fillColor=none;top=0;left=0;bottom=0;right=0;fontStyle=1;rounded=1;strokeColor=#788AA3;fontColor=#46495D;fontSize=16;" vertex="1" parent="GZZZKhW5ikRwwze90NLK-233">
          <mxGeometry width="30" height="30" as="geometry">
            <mxRectangle width="30" height="30" as="alternateBounds" />
          </mxGeometry>
        </mxCell>
        <mxCell id="GZZZKhW5ikRwwze90NLK-235" value="_id int NOT NULL " style="shape=partialRectangle;overflow=hidden;connectable=0;fillColor=none;top=0;left=0;bottom=0;right=0;align=left;spacingLeft=6;fontStyle=5;rounded=1;strokeColor=#788AA3;fontColor=#46495D;fontSize=16;" vertex="1" parent="GZZZKhW5ikRwwze90NLK-233">
          <mxGeometry x="30" width="220" height="30" as="geometry">
            <mxRectangle width="220" height="30" as="alternateBounds" />
          </mxGeometry>
        </mxCell>
        <mxCell id="GZZZKhW5ikRwwze90NLK-236" value="" style="shape=partialRectangle;collapsible=0;dropTarget=0;pointerEvents=0;fillColor=none;points=[[0,0.5],[1,0.5]];portConstraint=eastwest;top=0;left=0;right=0;bottom=0;rounded=1;strokeColor=#788AA3;fontColor=#46495D;fontSize=16;" vertex="1" parent="GZZZKhW5ikRwwze90NLK-232">
          <mxGeometry y="60" width="250" height="30" as="geometry" />
        </mxCell>
        <mxCell id="GZZZKhW5ikRwwze90NLK-237" value="" style="shape=partialRectangle;overflow=hidden;connectable=0;fillColor=none;top=0;left=0;bottom=0;right=0;rounded=1;strokeColor=#788AA3;fontColor=#46495D;fontSize=16;" vertex="1" parent="GZZZKhW5ikRwwze90NLK-236">
          <mxGeometry width="30" height="30" as="geometry">
            <mxRectangle width="30" height="30" as="alternateBounds" />
          </mxGeometry>
        </mxCell>
        <mxCell id="GZZZKhW5ikRwwze90NLK-238" value="id string" style="shape=partialRectangle;overflow=hidden;connectable=0;fillColor=none;top=0;left=0;bottom=0;right=0;align=left;spacingLeft=6;rounded=1;strokeColor=#788AA3;fontColor=#46495D;fontSize=16;" vertex="1" parent="GZZZKhW5ikRwwze90NLK-236">
          <mxGeometry x="30" width="220" height="30" as="geometry">
            <mxRectangle width="220" height="30" as="alternateBounds" />
          </mxGeometry>
        </mxCell>
        <mxCell id="GZZZKhW5ikRwwze90NLK-239" value="" style="shape=partialRectangle;collapsible=0;dropTarget=0;pointerEvents=0;fillColor=none;points=[[0,0.5],[1,0.5]];portConstraint=eastwest;top=0;left=0;right=0;bottom=0;rounded=1;strokeColor=#788AA3;fontColor=#46495D;fontSize=16;" vertex="1" parent="GZZZKhW5ikRwwze90NLK-232">
          <mxGeometry y="90" width="250" height="30" as="geometry" />
        </mxCell>
        <mxCell id="GZZZKhW5ikRwwze90NLK-240" value="" style="shape=partialRectangle;overflow=hidden;connectable=0;fillColor=none;top=0;left=0;bottom=0;right=0;rounded=1;strokeColor=#788AA3;fontColor=#46495D;fontSize=16;" vertex="1" parent="GZZZKhW5ikRwwze90NLK-239">
          <mxGeometry width="30" height="30" as="geometry">
            <mxRectangle width="30" height="30" as="alternateBounds" />
          </mxGeometry>
        </mxCell>
        <mxCell id="GZZZKhW5ikRwwze90NLK-241" value="name string" style="shape=partialRectangle;overflow=hidden;connectable=0;fillColor=none;top=0;left=0;bottom=0;right=0;align=left;spacingLeft=6;rounded=1;strokeColor=#788AA3;fontColor=#46495D;fontSize=16;" vertex="1" parent="GZZZKhW5ikRwwze90NLK-239">
          <mxGeometry x="30" width="220" height="30" as="geometry">
            <mxRectangle width="220" height="30" as="alternateBounds" />
          </mxGeometry>
        </mxCell>
        <mxCell id="GZZZKhW5ikRwwze90NLK-242" value="" style="shape=partialRectangle;collapsible=0;dropTarget=0;pointerEvents=0;fillColor=none;points=[[0,0.5],[1,0.5]];portConstraint=eastwest;top=0;left=0;right=0;bottom=0;rounded=1;strokeColor=#788AA3;fontColor=#46495D;fontSize=16;" vertex="1" parent="GZZZKhW5ikRwwze90NLK-232">
          <mxGeometry y="120" width="250" height="30" as="geometry" />
        </mxCell>
        <mxCell id="GZZZKhW5ikRwwze90NLK-243" value="" style="shape=partialRectangle;overflow=hidden;connectable=0;fillColor=none;top=0;left=0;bottom=0;right=0;rounded=1;strokeColor=#788AA3;fontColor=#46495D;fontSize=16;" vertex="1" parent="GZZZKhW5ikRwwze90NLK-242">
          <mxGeometry width="30" height="30" as="geometry">
            <mxRectangle width="30" height="30" as="alternateBounds" />
          </mxGeometry>
        </mxCell>
        <mxCell id="GZZZKhW5ikRwwze90NLK-244" value="name_zh string" style="shape=partialRectangle;overflow=hidden;connectable=0;fillColor=none;top=0;left=0;bottom=0;right=0;align=left;spacingLeft=6;rounded=1;strokeColor=#788AA3;fontColor=#46495D;fontSize=16;" vertex="1" parent="GZZZKhW5ikRwwze90NLK-242">
          <mxGeometry x="30" width="220" height="30" as="geometry">
            <mxRectangle width="220" height="30" as="alternateBounds" />
          </mxGeometry>
        </mxCell>
        <mxCell id="GZZZKhW5ikRwwze90NLK-245" style="shape=partialRectangle;collapsible=0;dropTarget=0;pointerEvents=0;fillColor=none;points=[[0,0.5],[1,0.5]];portConstraint=eastwest;top=0;left=0;right=0;bottom=0;rounded=1;strokeColor=#788AA3;fontColor=#46495D;fontSize=16;" vertex="1" parent="GZZZKhW5ikRwwze90NLK-232">
          <mxGeometry y="150" width="250" height="30" as="geometry" />
        </mxCell>
        <mxCell id="GZZZKhW5ikRwwze90NLK-246" style="shape=partialRectangle;overflow=hidden;connectable=0;fillColor=none;top=0;left=0;bottom=0;right=0;rounded=1;strokeColor=#788AA3;fontColor=#46495D;fontSize=16;" vertex="1" parent="GZZZKhW5ikRwwze90NLK-245">
          <mxGeometry width="30" height="30" as="geometry">
            <mxRectangle width="30" height="30" as="alternateBounds" />
          </mxGeometry>
        </mxCell>
        <mxCell id="GZZZKhW5ikRwwze90NLK-247" value="cooperation_times int" style="shape=partialRectangle;overflow=hidden;connectable=0;fillColor=none;top=0;left=0;bottom=0;right=0;align=left;spacingLeft=6;rounded=1;strokeColor=#788AA3;fontColor=#46495D;fontSize=16;" vertex="1" parent="GZZZKhW5ikRwwze90NLK-245">
          <mxGeometry x="30" width="220" height="30" as="geometry">
            <mxRectangle width="220" height="30" as="alternateBounds" />
          </mxGeometry>
        </mxCell>
        <mxCell id="GZZZKhW5ikRwwze90NLK-248" style="shape=partialRectangle;collapsible=0;dropTarget=0;pointerEvents=0;fillColor=none;points=[[0,0.5],[1,0.5]];portConstraint=eastwest;top=0;left=0;right=0;bottom=0;rounded=1;strokeColor=#788AA3;fontColor=#46495D;fontSize=16;" vertex="1" parent="GZZZKhW5ikRwwze90NLK-232">
          <mxGeometry y="180" width="250" height="30" as="geometry" />
        </mxCell>
        <mxCell id="GZZZKhW5ikRwwze90NLK-249" style="shape=partialRectangle;overflow=hidden;connectable=0;fillColor=none;top=0;left=0;bottom=0;right=0;rounded=1;strokeColor=#788AA3;fontColor=#46495D;fontSize=16;" vertex="1" parent="GZZZKhW5ikRwwze90NLK-248">
          <mxGeometry width="30" height="30" as="geometry">
            <mxRectangle width="30" height="30" as="alternateBounds" />
          </mxGeometry>
        </mxCell>
        <mxCell id="GZZZKhW5ikRwwze90NLK-250" value="type array[string]" style="shape=partialRectangle;overflow=hidden;connectable=0;fillColor=none;top=0;left=0;bottom=0;right=0;align=left;spacingLeft=6;rounded=1;strokeColor=#788AA3;fontColor=#46495D;fontSize=16;" vertex="1" parent="GZZZKhW5ikRwwze90NLK-248">
          <mxGeometry x="30" width="220" height="30" as="geometry">
            <mxRectangle width="220" height="30" as="alternateBounds" />
          </mxGeometry>
        </mxCell>
        <mxCell id="GZZZKhW5ikRwwze90NLK-263" value="" style="edgeStyle=entityRelationEdgeStyle;fontSize=12;html=1;endArrow=ERoneToMany;rounded=1;sketch=0;fontColor=#46495D;strokeColor=#788AA3;fillColor=#B2C9AB;" edge="1" parent="1">
          <mxGeometry width="100" height="100" relative="1" as="geometry">
            <mxPoint x="330" y="2240" as="sourcePoint" />
            <mxPoint x="440" y="2240" as="targetPoint" />
          </mxGeometry>
        </mxCell>
        <mxCell id="GZZZKhW5ikRwwze90NLK-264" value="project_vec" style="shape=table;startSize=30;container=1;collapsible=1;childLayout=tableLayout;fixedRows=1;rowLines=0;fontStyle=1;align=center;resizeLast=1;rounded=1;fillColor=#d5e8d4;strokeColor=#82b366;fontSize=16;" vertex="1" parent="1">
          <mxGeometry x="1200" y="1720" width="250" height="330" as="geometry" />
        </mxCell>
        <mxCell id="GZZZKhW5ikRwwze90NLK-265" value="" style="shape=partialRectangle;collapsible=0;dropTarget=0;pointerEvents=0;fillColor=none;points=[[0,0.5],[1,0.5]];portConstraint=eastwest;top=0;left=0;right=0;bottom=1;rounded=1;strokeColor=#788AA3;fontColor=#46495D;fontSize=16;" vertex="1" parent="GZZZKhW5ikRwwze90NLK-264">
          <mxGeometry y="30" width="250" height="30" as="geometry" />
        </mxCell>
        <mxCell id="GZZZKhW5ikRwwze90NLK-266" value="PK" style="shape=partialRectangle;overflow=hidden;connectable=0;fillColor=none;top=0;left=0;bottom=0;right=0;fontStyle=1;rounded=1;strokeColor=#788AA3;fontColor=#46495D;fontSize=16;" vertex="1" parent="GZZZKhW5ikRwwze90NLK-265">
          <mxGeometry width="30" height="30" as="geometry">
            <mxRectangle width="30" height="30" as="alternateBounds" />
          </mxGeometry>
        </mxCell>
        <mxCell id="GZZZKhW5ikRwwze90NLK-267" value="_id objectId NOT NULL " style="shape=partialRectangle;overflow=hidden;connectable=0;fillColor=none;top=0;left=0;bottom=0;right=0;align=left;spacingLeft=6;fontStyle=5;rounded=1;strokeColor=#788AA3;fontColor=#46495D;fontSize=16;" vertex="1" parent="GZZZKhW5ikRwwze90NLK-265">
          <mxGeometry x="30" width="220" height="30" as="geometry">
            <mxRectangle width="220" height="30" as="alternateBounds" />
          </mxGeometry>
        </mxCell>
        <mxCell id="GZZZKhW5ikRwwze90NLK-268" value="" style="shape=partialRectangle;collapsible=0;dropTarget=0;pointerEvents=0;fillColor=none;points=[[0,0.5],[1,0.5]];portConstraint=eastwest;top=0;left=0;right=0;bottom=0;rounded=1;strokeColor=#788AA3;fontColor=#46495D;fontSize=16;" vertex="1" parent="GZZZKhW5ikRwwze90NLK-264">
          <mxGeometry y="60" width="250" height="30" as="geometry" />
        </mxCell>
        <mxCell id="GZZZKhW5ikRwwze90NLK-269" value="" style="shape=partialRectangle;overflow=hidden;connectable=0;fillColor=none;top=0;left=0;bottom=0;right=0;rounded=1;strokeColor=#788AA3;fontColor=#46495D;fontSize=16;" vertex="1" parent="GZZZKhW5ikRwwze90NLK-268">
          <mxGeometry width="30" height="30" as="geometry">
            <mxRectangle width="30" height="30" as="alternateBounds" />
          </mxGeometry>
        </mxCell>
        <mxCell id="GZZZKhW5ikRwwze90NLK-270" value="id string" style="shape=partialRectangle;overflow=hidden;connectable=0;fillColor=none;top=0;left=0;bottom=0;right=0;align=left;spacingLeft=6;rounded=1;strokeColor=#788AA3;fontColor=#46495D;fontSize=16;" vertex="1" parent="GZZZKhW5ikRwwze90NLK-268">
          <mxGeometry x="30" width="220" height="30" as="geometry">
            <mxRectangle width="220" height="30" as="alternateBounds" />
          </mxGeometry>
        </mxCell>
        <mxCell id="GZZZKhW5ikRwwze90NLK-271" value="" style="shape=partialRectangle;collapsible=0;dropTarget=0;pointerEvents=0;fillColor=none;points=[[0,0.5],[1,0.5]];portConstraint=eastwest;top=0;left=0;right=0;bottom=0;rounded=1;strokeColor=#788AA3;fontColor=#46495D;fontSize=16;" vertex="1" parent="GZZZKhW5ikRwwze90NLK-264">
          <mxGeometry y="90" width="250" height="30" as="geometry" />
        </mxCell>
        <mxCell id="GZZZKhW5ikRwwze90NLK-272" value="" style="shape=partialRectangle;overflow=hidden;connectable=0;fillColor=none;top=0;left=0;bottom=0;right=0;rounded=1;strokeColor=#788AA3;fontColor=#46495D;fontSize=16;" vertex="1" parent="GZZZKhW5ikRwwze90NLK-271">
          <mxGeometry width="30" height="30" as="geometry">
            <mxRectangle width="30" height="30" as="alternateBounds" />
          </mxGeometry>
        </mxCell>
        <mxCell id="GZZZKhW5ikRwwze90NLK-273" value="title_zh string" style="shape=partialRectangle;overflow=hidden;connectable=0;fillColor=none;top=0;left=0;bottom=0;right=0;align=left;spacingLeft=6;rounded=1;strokeColor=#788AA3;fontColor=#46495D;fontSize=16;" vertex="1" parent="GZZZKhW5ikRwwze90NLK-271">
          <mxGeometry x="30" width="220" height="30" as="geometry">
            <mxRectangle width="220" height="30" as="alternateBounds" />
          </mxGeometry>
        </mxCell>
        <mxCell id="GZZZKhW5ikRwwze90NLK-274" value="" style="shape=partialRectangle;collapsible=0;dropTarget=0;pointerEvents=0;fillColor=none;points=[[0,0.5],[1,0.5]];portConstraint=eastwest;top=0;left=0;right=0;bottom=0;rounded=1;strokeColor=#788AA3;fontColor=#46495D;fontSize=16;" vertex="1" parent="GZZZKhW5ikRwwze90NLK-264">
          <mxGeometry y="120" width="250" height="30" as="geometry" />
        </mxCell>
        <mxCell id="GZZZKhW5ikRwwze90NLK-275" value="" style="shape=partialRectangle;overflow=hidden;connectable=0;fillColor=none;top=0;left=0;bottom=0;right=0;rounded=1;strokeColor=#788AA3;fontColor=#46495D;fontSize=16;" vertex="1" parent="GZZZKhW5ikRwwze90NLK-274">
          <mxGeometry width="30" height="30" as="geometry">
            <mxRectangle width="30" height="30" as="alternateBounds" />
          </mxGeometry>
        </mxCell>
        <mxCell id="GZZZKhW5ikRwwze90NLK-276" value="abstract_zh string" style="shape=partialRectangle;overflow=hidden;connectable=0;fillColor=none;top=0;left=0;bottom=0;right=0;align=left;spacingLeft=6;rounded=1;strokeColor=#788AA3;fontColor=#46495D;fontSize=16;" vertex="1" parent="GZZZKhW5ikRwwze90NLK-274">
          <mxGeometry x="30" width="220" height="30" as="geometry">
            <mxRectangle width="220" height="30" as="alternateBounds" />
          </mxGeometry>
        </mxCell>
        <mxCell id="GZZZKhW5ikRwwze90NLK-277" style="shape=partialRectangle;collapsible=0;dropTarget=0;pointerEvents=0;fillColor=none;points=[[0,0.5],[1,0.5]];portConstraint=eastwest;top=0;left=0;right=0;bottom=0;rounded=1;strokeColor=#788AA3;fontColor=#46495D;fontSize=16;" vertex="1" parent="GZZZKhW5ikRwwze90NLK-264">
          <mxGeometry y="150" width="250" height="30" as="geometry" />
        </mxCell>
        <mxCell id="GZZZKhW5ikRwwze90NLK-278" style="shape=partialRectangle;overflow=hidden;connectable=0;fillColor=none;top=0;left=0;bottom=0;right=0;rounded=1;strokeColor=#788AA3;fontColor=#46495D;fontSize=16;" vertex="1" parent="GZZZKhW5ikRwwze90NLK-277">
          <mxGeometry width="30" height="30" as="geometry">
            <mxRectangle width="30" height="30" as="alternateBounds" />
          </mxGeometry>
        </mxCell>
        <mxCell id="GZZZKhW5ikRwwze90NLK-279" value="apply_number string" style="shape=partialRectangle;overflow=hidden;connectable=0;fillColor=none;top=0;left=0;bottom=0;right=0;align=left;spacingLeft=6;rounded=1;strokeColor=#788AA3;fontColor=#46495D;fontSize=16;" vertex="1" parent="GZZZKhW5ikRwwze90NLK-277">
          <mxGeometry x="30" width="220" height="30" as="geometry">
            <mxRectangle width="220" height="30" as="alternateBounds" />
          </mxGeometry>
        </mxCell>
        <mxCell id="GZZZKhW5ikRwwze90NLK-289" style="shape=partialRectangle;collapsible=0;dropTarget=0;pointerEvents=0;fillColor=none;points=[[0,0.5],[1,0.5]];portConstraint=eastwest;top=0;left=0;right=0;bottom=0;rounded=1;strokeColor=#788AA3;fontColor=#46495D;fontSize=16;" vertex="1" parent="GZZZKhW5ikRwwze90NLK-264">
          <mxGeometry y="180" width="250" height="30" as="geometry" />
        </mxCell>
        <mxCell id="GZZZKhW5ikRwwze90NLK-290" style="shape=partialRectangle;overflow=hidden;connectable=0;fillColor=none;top=0;left=0;bottom=0;right=0;rounded=1;strokeColor=#788AA3;fontColor=#46495D;fontSize=16;" vertex="1" parent="GZZZKhW5ikRwwze90NLK-289">
          <mxGeometry width="30" height="30" as="geometry">
            <mxRectangle width="30" height="30" as="alternateBounds" />
          </mxGeometry>
        </mxCell>
        <mxCell id="GZZZKhW5ikRwwze90NLK-291" value="lead_author_id string" style="shape=partialRectangle;overflow=hidden;connectable=0;fillColor=none;top=0;left=0;bottom=0;right=0;align=left;spacingLeft=6;rounded=1;strokeColor=#788AA3;fontColor=#46495D;fontSize=16;" vertex="1" parent="GZZZKhW5ikRwwze90NLK-289">
          <mxGeometry x="30" width="220" height="30" as="geometry">
            <mxRectangle width="220" height="30" as="alternateBounds" />
          </mxGeometry>
        </mxCell>
        <mxCell id="GZZZKhW5ikRwwze90NLK-280" style="shape=partialRectangle;collapsible=0;dropTarget=0;pointerEvents=0;fillColor=none;points=[[0,0.5],[1,0.5]];portConstraint=eastwest;top=0;left=0;right=0;bottom=0;rounded=1;strokeColor=#788AA3;fontColor=#46495D;fontSize=16;" vertex="1" parent="GZZZKhW5ikRwwze90NLK-264">
          <mxGeometry y="210" width="250" height="30" as="geometry" />
        </mxCell>
        <mxCell id="GZZZKhW5ikRwwze90NLK-281" style="shape=partialRectangle;overflow=hidden;connectable=0;fillColor=none;top=0;left=0;bottom=0;right=0;rounded=1;strokeColor=#788AA3;fontColor=#46495D;fontSize=16;" vertex="1" parent="GZZZKhW5ikRwwze90NLK-280">
          <mxGeometry width="30" height="30" as="geometry">
            <mxRectangle width="30" height="30" as="alternateBounds" />
          </mxGeometry>
        </mxCell>
        <mxCell id="GZZZKhW5ikRwwze90NLK-282" value="authors_id_list array[string]" style="shape=partialRectangle;overflow=hidden;connectable=0;fillColor=none;top=0;left=0;bottom=0;right=0;align=left;spacingLeft=6;rounded=1;strokeColor=#788AA3;fontColor=#46495D;fontSize=16;" vertex="1" parent="GZZZKhW5ikRwwze90NLK-280">
          <mxGeometry x="30" width="220" height="30" as="geometry">
            <mxRectangle width="220" height="30" as="alternateBounds" />
          </mxGeometry>
        </mxCell>
        <mxCell id="GZZZKhW5ikRwwze90NLK-283" style="shape=partialRectangle;collapsible=0;dropTarget=0;pointerEvents=0;fillColor=none;points=[[0,0.5],[1,0.5]];portConstraint=eastwest;top=0;left=0;right=0;bottom=0;rounded=1;strokeColor=#788AA3;fontColor=#46495D;fontSize=16;" vertex="1" parent="GZZZKhW5ikRwwze90NLK-264">
          <mxGeometry y="240" width="250" height="30" as="geometry" />
        </mxCell>
        <mxCell id="GZZZKhW5ikRwwze90NLK-284" style="shape=partialRectangle;overflow=hidden;connectable=0;fillColor=none;top=0;left=0;bottom=0;right=0;rounded=1;strokeColor=#788AA3;fontColor=#46495D;fontSize=16;" vertex="1" parent="GZZZKhW5ikRwwze90NLK-283">
          <mxGeometry width="30" height="30" as="geometry">
            <mxRectangle width="30" height="30" as="alternateBounds" />
          </mxGeometry>
        </mxCell>
        <mxCell id="GZZZKhW5ikRwwze90NLK-285" value="keywords array[string]" style="shape=partialRectangle;overflow=hidden;connectable=0;fillColor=none;top=0;left=0;bottom=0;right=0;align=left;spacingLeft=6;rounded=1;strokeColor=#788AA3;fontColor=#46495D;fontSize=16;" vertex="1" parent="GZZZKhW5ikRwwze90NLK-283">
          <mxGeometry x="30" width="220" height="30" as="geometry">
            <mxRectangle width="220" height="30" as="alternateBounds" />
          </mxGeometry>
        </mxCell>
        <mxCell id="GZZZKhW5ikRwwze90NLK-286" style="shape=partialRectangle;collapsible=0;dropTarget=0;pointerEvents=0;fillColor=none;points=[[0,0.5],[1,0.5]];portConstraint=eastwest;top=0;left=0;right=0;bottom=0;rounded=1;strokeColor=#788AA3;fontColor=#46495D;fontSize=16;" vertex="1" parent="GZZZKhW5ikRwwze90NLK-264">
          <mxGeometry y="270" width="250" height="30" as="geometry" />
        </mxCell>
        <mxCell id="GZZZKhW5ikRwwze90NLK-287" style="shape=partialRectangle;overflow=hidden;connectable=0;fillColor=none;top=0;left=0;bottom=0;right=0;rounded=1;strokeColor=#788AA3;fontColor=#46495D;fontSize=16;" vertex="1" parent="GZZZKhW5ikRwwze90NLK-286">
          <mxGeometry width="30" height="30" as="geometry">
            <mxRectangle width="30" height="30" as="alternateBounds" />
          </mxGeometry>
        </mxCell>
        <mxCell id="GZZZKhW5ikRwwze90NLK-288" value="keywords_zh array[string]" style="shape=partialRectangle;overflow=hidden;connectable=0;fillColor=none;top=0;left=0;bottom=0;right=0;align=left;spacingLeft=6;rounded=1;strokeColor=#788AA3;fontColor=#46495D;fontSize=16;" vertex="1" parent="GZZZKhW5ikRwwze90NLK-286">
          <mxGeometry x="30" width="220" height="30" as="geometry">
            <mxRectangle width="220" height="30" as="alternateBounds" />
          </mxGeometry>
        </mxCell>
        <mxCell id="GZZZKhW5ikRwwze90NLK-292" style="shape=partialRectangle;collapsible=0;dropTarget=0;pointerEvents=0;fillColor=none;points=[[0,0.5],[1,0.5]];portConstraint=eastwest;top=0;left=0;right=0;bottom=0;rounded=1;strokeColor=#788AA3;fontColor=#46495D;fontSize=16;" vertex="1" parent="GZZZKhW5ikRwwze90NLK-264">
          <mxGeometry y="300" width="250" height="30" as="geometry" />
        </mxCell>
        <mxCell id="GZZZKhW5ikRwwze90NLK-293" style="shape=partialRectangle;overflow=hidden;connectable=0;fillColor=none;top=0;left=0;bottom=0;right=0;rounded=1;strokeColor=#788AA3;fontColor=#46495D;fontSize=16;" vertex="1" parent="GZZZKhW5ikRwwze90NLK-292">
          <mxGeometry width="30" height="30" as="geometry">
            <mxRectangle width="30" height="30" as="alternateBounds" />
          </mxGeometry>
        </mxCell>
        <mxCell id="GZZZKhW5ikRwwze90NLK-294" value="sentence_vec array[float]" style="shape=partialRectangle;overflow=hidden;connectable=0;fillColor=none;top=0;left=0;bottom=0;right=0;align=left;spacingLeft=6;rounded=1;strokeColor=#788AA3;fontColor=#46495D;fontSize=16;" vertex="1" parent="GZZZKhW5ikRwwze90NLK-292">
          <mxGeometry x="30" width="220" height="30" as="geometry">
            <mxRectangle width="220" height="30" as="alternateBounds" />
          </mxGeometry>
        </mxCell>
        <mxCell id="GZZZKhW5ikRwwze90NLK-301" value="users_settings" style="shape=table;startSize=30;container=1;collapsible=1;childLayout=tableLayout;fixedRows=1;rowLines=0;fontStyle=1;align=center;resizeLast=1;rounded=1;fillColor=#d5e8d4;strokeColor=#82b366;fontSize=16;" vertex="1" parent="1">
          <mxGeometry x="1200" y="2120" width="250" height="120" as="geometry" />
        </mxCell>
        <mxCell id="GZZZKhW5ikRwwze90NLK-302" value="" style="shape=partialRectangle;collapsible=0;dropTarget=0;pointerEvents=0;fillColor=none;points=[[0,0.5],[1,0.5]];portConstraint=eastwest;top=0;left=0;right=0;bottom=1;rounded=1;strokeColor=#788AA3;fontColor=#46495D;fontSize=16;" vertex="1" parent="GZZZKhW5ikRwwze90NLK-301">
          <mxGeometry y="30" width="250" height="30" as="geometry" />
        </mxCell>
        <mxCell id="GZZZKhW5ikRwwze90NLK-303" value="PK" style="shape=partialRectangle;overflow=hidden;connectable=0;fillColor=none;top=0;left=0;bottom=0;right=0;fontStyle=1;rounded=1;strokeColor=#788AA3;fontColor=#46495D;fontSize=16;" vertex="1" parent="GZZZKhW5ikRwwze90NLK-302">
          <mxGeometry width="30" height="30" as="geometry">
            <mxRectangle width="30" height="30" as="alternateBounds" />
          </mxGeometry>
        </mxCell>
        <mxCell id="GZZZKhW5ikRwwze90NLK-304" value="_id int NOT NULL " style="shape=partialRectangle;overflow=hidden;connectable=0;fillColor=none;top=0;left=0;bottom=0;right=0;align=left;spacingLeft=6;fontStyle=5;rounded=1;strokeColor=#788AA3;fontColor=#46495D;fontSize=16;" vertex="1" parent="GZZZKhW5ikRwwze90NLK-302">
          <mxGeometry x="30" width="220" height="30" as="geometry">
            <mxRectangle width="220" height="30" as="alternateBounds" />
          </mxGeometry>
        </mxCell>
        <mxCell id="GZZZKhW5ikRwwze90NLK-305" value="" style="shape=partialRectangle;collapsible=0;dropTarget=0;pointerEvents=0;fillColor=none;points=[[0,0.5],[1,0.5]];portConstraint=eastwest;top=0;left=0;right=0;bottom=0;rounded=1;strokeColor=#788AA3;fontColor=#46495D;fontSize=16;" vertex="1" parent="GZZZKhW5ikRwwze90NLK-301">
          <mxGeometry y="60" width="250" height="30" as="geometry" />
        </mxCell>
        <mxCell id="GZZZKhW5ikRwwze90NLK-306" value="" style="shape=partialRectangle;overflow=hidden;connectable=0;fillColor=none;top=0;left=0;bottom=0;right=0;rounded=1;strokeColor=#788AA3;fontColor=#46495D;fontSize=16;" vertex="1" parent="GZZZKhW5ikRwwze90NLK-305">
          <mxGeometry width="30" height="30" as="geometry">
            <mxRectangle width="30" height="30" as="alternateBounds" />
          </mxGeometry>
        </mxCell>
        <mxCell id="GZZZKhW5ikRwwze90NLK-307" value="type string" style="shape=partialRectangle;overflow=hidden;connectable=0;fillColor=none;top=0;left=0;bottom=0;right=0;align=left;spacingLeft=6;rounded=1;strokeColor=#788AA3;fontColor=#46495D;fontSize=16;" vertex="1" parent="GZZZKhW5ikRwwze90NLK-305">
          <mxGeometry x="30" width="220" height="30" as="geometry">
            <mxRectangle width="220" height="30" as="alternateBounds" />
          </mxGeometry>
        </mxCell>
        <mxCell id="GZZZKhW5ikRwwze90NLK-308" value="" style="shape=partialRectangle;collapsible=0;dropTarget=0;pointerEvents=0;fillColor=none;points=[[0,0.5],[1,0.5]];portConstraint=eastwest;top=0;left=0;right=0;bottom=0;rounded=1;strokeColor=#788AA3;fontColor=#46495D;fontSize=16;" vertex="1" parent="GZZZKhW5ikRwwze90NLK-301">
          <mxGeometry y="90" width="250" height="30" as="geometry" />
        </mxCell>
        <mxCell id="GZZZKhW5ikRwwze90NLK-309" value="" style="shape=partialRectangle;overflow=hidden;connectable=0;fillColor=none;top=0;left=0;bottom=0;right=0;rounded=1;strokeColor=#788AA3;fontColor=#46495D;fontSize=16;" vertex="1" parent="GZZZKhW5ikRwwze90NLK-308">
          <mxGeometry width="30" height="30" as="geometry">
            <mxRectangle width="30" height="30" as="alternateBounds" />
          </mxGeometry>
        </mxCell>
        <mxCell id="GZZZKhW5ikRwwze90NLK-310" value="items embeded" style="shape=partialRectangle;overflow=hidden;connectable=0;fillColor=none;top=0;left=0;bottom=0;right=0;align=left;spacingLeft=6;rounded=1;strokeColor=#788AA3;fontColor=#46495D;fontSize=16;" vertex="1" parent="GZZZKhW5ikRwwze90NLK-308">
          <mxGeometry x="30" width="220" height="30" as="geometry">
            <mxRectangle width="220" height="30" as="alternateBounds" />
          </mxGeometry>
        </mxCell>
        <mxCell id="GZZZKhW5ikRwwze90NLK-335" value="users_settings_items" style="shape=table;startSize=30;container=1;collapsible=1;childLayout=tableLayout;fixedRows=1;rowLines=0;fontStyle=1;align=center;resizeLast=1;rounded=1;fillColor=#d5e8d4;strokeColor=#82b366;fontSize=16;" vertex="1" parent="1">
          <mxGeometry x="1560" y="2120" width="250" height="180" as="geometry" />
        </mxCell>
        <mxCell id="GZZZKhW5ikRwwze90NLK-336" value="" style="shape=partialRectangle;collapsible=0;dropTarget=0;pointerEvents=0;fillColor=none;points=[[0,0.5],[1,0.5]];portConstraint=eastwest;top=0;left=0;right=0;bottom=1;rounded=1;strokeColor=#788AA3;fontColor=#46495D;fontSize=16;" vertex="1" parent="GZZZKhW5ikRwwze90NLK-335">
          <mxGeometry y="30" width="250" height="30" as="geometry" />
        </mxCell>
        <mxCell id="GZZZKhW5ikRwwze90NLK-337" value="PK" style="shape=partialRectangle;overflow=hidden;connectable=0;fillColor=none;top=0;left=0;bottom=0;right=0;fontStyle=1;rounded=1;strokeColor=#788AA3;fontColor=#46495D;fontSize=16;" vertex="1" parent="GZZZKhW5ikRwwze90NLK-336">
          <mxGeometry width="30" height="30" as="geometry">
            <mxRectangle width="30" height="30" as="alternateBounds" />
          </mxGeometry>
        </mxCell>
        <mxCell id="GZZZKhW5ikRwwze90NLK-338" value="_id int NOT NULL " style="shape=partialRectangle;overflow=hidden;connectable=0;fillColor=none;top=0;left=0;bottom=0;right=0;align=left;spacingLeft=6;fontStyle=5;rounded=1;strokeColor=#788AA3;fontColor=#46495D;fontSize=16;" vertex="1" parent="GZZZKhW5ikRwwze90NLK-336">
          <mxGeometry x="30" width="220" height="30" as="geometry">
            <mxRectangle width="220" height="30" as="alternateBounds" />
          </mxGeometry>
        </mxCell>
        <mxCell id="GZZZKhW5ikRwwze90NLK-339" value="" style="shape=partialRectangle;collapsible=0;dropTarget=0;pointerEvents=0;fillColor=none;points=[[0,0.5],[1,0.5]];portConstraint=eastwest;top=0;left=0;right=0;bottom=0;rounded=1;strokeColor=#788AA3;fontColor=#46495D;fontSize=16;" vertex="1" parent="GZZZKhW5ikRwwze90NLK-335">
          <mxGeometry y="60" width="250" height="30" as="geometry" />
        </mxCell>
        <mxCell id="GZZZKhW5ikRwwze90NLK-340" value="" style="shape=partialRectangle;overflow=hidden;connectable=0;fillColor=none;top=0;left=0;bottom=0;right=0;rounded=1;strokeColor=#788AA3;fontColor=#46495D;fontSize=16;" vertex="1" parent="GZZZKhW5ikRwwze90NLK-339">
          <mxGeometry width="30" height="30" as="geometry">
            <mxRectangle width="30" height="30" as="alternateBounds" />
          </mxGeometry>
        </mxCell>
        <mxCell id="GZZZKhW5ikRwwze90NLK-341" value="type string" style="shape=partialRectangle;overflow=hidden;connectable=0;fillColor=none;top=0;left=0;bottom=0;right=0;align=left;spacingLeft=6;rounded=1;strokeColor=#788AA3;fontColor=#46495D;fontSize=16;" vertex="1" parent="GZZZKhW5ikRwwze90NLK-339">
          <mxGeometry x="30" width="220" height="30" as="geometry">
            <mxRectangle width="220" height="30" as="alternateBounds" />
          </mxGeometry>
        </mxCell>
        <mxCell id="GZZZKhW5ikRwwze90NLK-342" value="" style="shape=partialRectangle;collapsible=0;dropTarget=0;pointerEvents=0;fillColor=none;points=[[0,0.5],[1,0.5]];portConstraint=eastwest;top=0;left=0;right=0;bottom=0;rounded=1;strokeColor=#788AA3;fontColor=#46495D;fontSize=16;" vertex="1" parent="GZZZKhW5ikRwwze90NLK-335">
          <mxGeometry y="90" width="250" height="30" as="geometry" />
        </mxCell>
        <mxCell id="GZZZKhW5ikRwwze90NLK-343" value="" style="shape=partialRectangle;overflow=hidden;connectable=0;fillColor=none;top=0;left=0;bottom=0;right=0;rounded=1;strokeColor=#788AA3;fontColor=#46495D;fontSize=16;" vertex="1" parent="GZZZKhW5ikRwwze90NLK-342">
          <mxGeometry width="30" height="30" as="geometry">
            <mxRectangle width="30" height="30" as="alternateBounds" />
          </mxGeometry>
        </mxCell>
        <mxCell id="GZZZKhW5ikRwwze90NLK-344" value="fixed boolean" style="shape=partialRectangle;overflow=hidden;connectable=0;fillColor=none;top=0;left=0;bottom=0;right=0;align=left;spacingLeft=6;rounded=1;strokeColor=#788AA3;fontColor=#46495D;fontSize=16;" vertex="1" parent="GZZZKhW5ikRwwze90NLK-342">
          <mxGeometry x="30" width="220" height="30" as="geometry">
            <mxRectangle width="220" height="30" as="alternateBounds" />
          </mxGeometry>
        </mxCell>
        <mxCell id="GZZZKhW5ikRwwze90NLK-345" value="" style="shape=partialRectangle;collapsible=0;dropTarget=0;pointerEvents=0;fillColor=none;points=[[0,0.5],[1,0.5]];portConstraint=eastwest;top=0;left=0;right=0;bottom=0;rounded=1;strokeColor=#788AA3;fontColor=#46495D;fontSize=16;" vertex="1" parent="GZZZKhW5ikRwwze90NLK-335">
          <mxGeometry y="120" width="250" height="30" as="geometry" />
        </mxCell>
        <mxCell id="GZZZKhW5ikRwwze90NLK-346" value="" style="shape=partialRectangle;overflow=hidden;connectable=0;fillColor=none;top=0;left=0;bottom=0;right=0;rounded=1;strokeColor=#788AA3;fontColor=#46495D;fontSize=16;" vertex="1" parent="GZZZKhW5ikRwwze90NLK-345">
          <mxGeometry width="30" height="30" as="geometry">
            <mxRectangle width="30" height="30" as="alternateBounds" />
          </mxGeometry>
        </mxCell>
        <mxCell id="GZZZKhW5ikRwwze90NLK-347" value="value string" style="shape=partialRectangle;overflow=hidden;connectable=0;fillColor=none;top=0;left=0;bottom=0;right=0;align=left;spacingLeft=6;rounded=1;strokeColor=#788AA3;fontColor=#46495D;fontSize=16;" vertex="1" parent="GZZZKhW5ikRwwze90NLK-345">
          <mxGeometry x="30" width="220" height="30" as="geometry">
            <mxRectangle width="220" height="30" as="alternateBounds" />
          </mxGeometry>
        </mxCell>
        <mxCell id="GZZZKhW5ikRwwze90NLK-348" style="shape=partialRectangle;collapsible=0;dropTarget=0;pointerEvents=0;fillColor=none;points=[[0,0.5],[1,0.5]];portConstraint=eastwest;top=0;left=0;right=0;bottom=0;rounded=1;strokeColor=#788AA3;fontColor=#46495D;fontSize=16;" vertex="1" parent="GZZZKhW5ikRwwze90NLK-335">
          <mxGeometry y="150" width="250" height="30" as="geometry" />
        </mxCell>
        <mxCell id="GZZZKhW5ikRwwze90NLK-349" style="shape=partialRectangle;overflow=hidden;connectable=0;fillColor=none;top=0;left=0;bottom=0;right=0;rounded=1;strokeColor=#788AA3;fontColor=#46495D;fontSize=16;" vertex="1" parent="GZZZKhW5ikRwwze90NLK-348">
          <mxGeometry width="30" height="30" as="geometry">
            <mxRectangle width="30" height="30" as="alternateBounds" />
          </mxGeometry>
        </mxCell>
        <mxCell id="GZZZKhW5ikRwwze90NLK-350" value="order int" style="shape=partialRectangle;overflow=hidden;connectable=0;fillColor=none;top=0;left=0;bottom=0;right=0;align=left;spacingLeft=6;rounded=1;strokeColor=#788AA3;fontColor=#46495D;fontSize=16;" vertex="1" parent="GZZZKhW5ikRwwze90NLK-348">
          <mxGeometry x="30" width="220" height="30" as="geometry">
            <mxRectangle width="220" height="30" as="alternateBounds" />
          </mxGeometry>
        </mxCell>
        <mxCell id="GZZZKhW5ikRwwze90NLK-351" value="" style="edgeStyle=entityRelationEdgeStyle;fontSize=12;html=1;endArrow=ERoneToMany;rounded=1;sketch=0;fontColor=#46495D;strokeColor=#788AA3;fillColor=#B2C9AB;" edge="1" parent="1">
          <mxGeometry width="100" height="100" relative="1" as="geometry">
            <mxPoint x="1090" y="2200" as="sourcePoint" />
            <mxPoint x="1200" y="2200" as="targetPoint" />
          </mxGeometry>
        </mxCell>
        <mxCell id="GZZZKhW5ikRwwze90NLK-352" value="" style="edgeStyle=entityRelationEdgeStyle;fontSize=12;html=1;endArrow=ERoneToMany;rounded=1;sketch=0;fontColor=#46495D;strokeColor=#788AA3;fillColor=#B2C9AB;" edge="1" parent="1">
          <mxGeometry width="100" height="100" relative="1" as="geometry">
            <mxPoint x="1450" y="2200" as="sourcePoint" />
            <mxPoint x="1560" y="2200" as="targetPoint" />
          </mxGeometry>
        </mxCell>
      </root>
    </mxGraphModel>
  </diagram>
</mxfile>
